<svg width="200" height="200" viewBox="0 0 200 200" fill="none" xmlns="http://www.w3.org/2000/svg">
<rect width="200" height="200" fill="white"/>
<g clip-path="url(#clip0)">
<path d="M73.4703 44.4816C72.3018 43.9292 70.9119 44.4188 70.3324 45.5884C70.0401 46.1781 69.9995 46.8637 70.2197 47.4846C70.4399 48.1055 70.9019 48.6066 71.4968 48.8719C72.9785 49.5325 74.5659 49.9667 76.0936 50.1933V52.0677C76.0936 53.2034 76.9997 54.1242 78.1174 54.1242C79.2351 54.1242 80.1413 53.2034 80.1413 52.0677V50.2746C84.064 49.8079 86.5931 47.643 86.5931 43.6796C86.5931 39.5765 83.9701 38.2208 80.1413 37.1168V32.868C80.7477 33.0469 81.3645 33.2891 81.9142 33.5397C83.0147 34.0415 84.3109 33.5906 84.8753 32.5072L84.8762 32.5053C85.1712 31.9391 85.2199 31.2734 85.0104 30.6692C84.8008 30.065 84.3521 29.5777 83.7733 29.3238C82.5956 28.8072 81.35 28.3966 80.1413 28.2032V27.0744C80.1413 25.9387 79.2351 25.0179 78.1174 25.0179C76.9997 25.0179 76.0936 25.9387 76.0936 27.0744V28.251C72.231 29.0471 70.2162 31.7495 70.2162 35.1583C70.2162 38.7879 72.6099 40.1986 76.0936 41.2317V45.4627C75.2011 45.2226 74.2666 44.8579 73.4703 44.4816ZM81.2455 44.1735C81.2455 44.8807 80.8773 45.3593 80.1413 45.6098V42.6382C80.7544 42.9709 81.2455 43.33 81.2455 44.1735ZM75.3511 34.3558C75.3511 33.7244 75.5999 33.259 76.0936 32.9571V35.7328C75.6236 35.4121 75.3511 35.0182 75.3511 34.3558Z" fill="#4F4F4F"/>
<path d="M119.625 82.236L107.111 62.2543C104.617 58.9664 100.544 57.1673 96.4405 57.619L82.7638 59.1309C80.7911 59.3491 79.3657 61.151 79.5803 63.1558C79.795 65.1604 81.568 66.6076 83.5412 66.3906L96.6172 64.945L74.817 69.2576L74.2602 69.2794L63.9751 60.0269C62.4891 58.6903 60.2185 58.8306 58.9029 60.3404C57.5875 61.8503 57.7255 64.1578 59.2114 65.4945L70.5758 75.7177C71.2687 76.341 72.1725 76.6671 73.0958 76.6325L97.2566 75.6881L103.027 84.3738C103.641 85.2974 104.597 85.8443 105.608 85.9589L105.622 85.9821C107.743 85.9821 116.157 85.9821 117.595 85.9821C119.485 85.9819 120.636 83.8587 119.625 82.236Z" fill="#4F4F4F"/>
</g>
<path d="M178.259 135.997C178.258 135.997 178.257 135.997 178.256 135.997L177.51 135.998C177.203 131.428 173.766 127.687 169.255 126.773C169.382 125.497 168.38 124.405 167.113 124.405C165.849 124.405 164.845 125.493 164.971 126.773C160.452 127.689 157.01 131.443 156.714 136.025L134.888 136.052L152.181 130.385C152.34 130.333 152.47 130.217 152.54 130.065C152.611 129.913 152.614 129.739 152.551 129.583C150.827 125.356 146.404 122.885 141.845 123.42C141.555 122.108 140.147 121.371 138.896 121.905C139.211 122.273 139.482 122.683 139.693 123.132C140.977 125.853 139.852 129.185 137.045 130.509L132.553 132.628C132.433 133.753 132.507 134.91 132.794 136.055L126.727 136.063V141.041L178.262 140.976C179.637 140.974 180.75 139.858 180.749 138.483C180.746 137.11 179.632 135.997 178.259 135.997Z" fill="#4F4F4F"/>
<path d="M117.185 104C113.739 104.017 110.958 106.824 110.974 110.271C110.991 113.73 113.816 116.498 117.245 116.482C120.673 116.465 123.473 113.671 123.456 110.211C123.44 106.764 120.632 103.984 117.185 104Z" fill="#4F4F4F"/>
<path d="M137.238 124.29C136.575 122.884 134.889 122.272 133.474 122.939L124.628 127.112L115.424 121.551L124.173 124.145L124.168 122.919C124.163 121.801 123.714 120.73 122.919 119.943C122.13 119.161 121.063 118.734 119.952 118.734C119.945 118.734 119.938 118.734 119.932 118.734H112.414C110.086 118.745 108.242 120.665 108.252 122.993C108.252 126.842 108.252 171.48 108.252 173.706C108.252 175.525 109.719 177 111.538 177C113.357 177 114.832 175.525 114.832 173.706C114.832 172.547 114.832 147.515 114.832 146.419L117.539 146.406C117.741 148.181 118.597 155.727 118.731 156.91V173.706C118.731 175.525 120.206 177 122.025 177C123.844 177 125.318 175.525 125.318 173.706V156.725L124.249 146.374V135.85C123.042 135.798 121.758 135.317 121.104 134.677L112.837 126.595L123.001 132.736C123.809 133.224 124.816 133.276 125.67 132.873L135.887 128.054C137.302 127.386 137.902 125.698 137.238 124.29Z" fill="#4F4F4F"/>
<g clip-path="url(#clip1)">
<path d="M45.7482 147.526L44.9135 158.147C44.806 159.513 45.8269 160.708 47.1935 160.816C48.4806 160.918 49.6188 160.015 49.8332 158.763V147.526H45.7482V147.526Z" fill="#4F4F4F"/>
<path d="M63.7307 157.918L61.9319 147.526H57.5815V151.497L58.8397 158.765C59.0736 160.117 60.3591 161.021 61.7083 160.787C63.0591 160.554 63.9645 159.269 63.7307 157.918Z" fill="#4F4F4F"/>
<path d="M53.9561 125.256C56.3239 125.256 58.2433 123.336 58.2433 120.969C58.2433 118.601 56.3239 116.682 53.9561 116.682C51.5884 116.682 49.6689 118.601 49.6689 120.969C49.6689 123.336 51.5884 125.256 53.9561 125.256Z" fill="#4F4F4F"/>
<path d="M31.3073 128.223C33.9438 128.223 36.0811 126.086 36.0811 123.449C36.0811 120.813 33.9438 118.675 31.3073 118.675C28.6708 118.675 26.5334 120.813 26.5334 123.449C26.5334 126.086 28.6708 128.223 31.3073 128.223Z" fill="#4F4F4F"/>
<path d="M51.7572 135.645C51.3682 135.256 50.8405 135.039 50.2907 135.04C48.3923 135.043 45.8437 135.047 45.616 135.048C47.4986 135.375 49.0148 136.895 49.2671 138.866V139.193H50.2867V139.193C51.4345 139.193 52.3651 138.262 52.3651 137.115V137.11C52.3651 136.561 52.1463 136.034 51.7572 135.645Z" fill="#4F4F4F"/>
<path d="M64.3578 129.774C63.4525 127.859 61.4992 126.622 59.3814 126.622C59.1645 126.622 49.5847 126.622 48.5056 126.622C46.3875 126.622 44.4343 127.859 43.5292 129.774C43.293 130.274 41.203 134.695 40.9023 135.331L44.4399 135.001C44.8404 134.964 45.2333 134.982 45.6117 135.047C46.5486 133.065 46.3428 133.501 47.2688 131.542C47.2688 131.542 47.2689 131.541 47.2689 131.541C47.2745 131.53 47.28 131.518 47.2859 131.507C47.4156 131.251 47.7035 131.119 47.9819 131.185C48.2602 131.252 48.4564 131.501 48.4564 131.788V133.146L49.8399 133.143C49.8399 132.556 49.8399 131.921 49.8399 130.664C49.8399 130.368 50.1222 130.154 50.4073 130.232C52.404 130.781 51.9731 130.662 53.9587 131.208C55.9418 130.663 55.5133 130.781 57.51 130.232C57.7955 130.153 58.0775 130.369 58.0775 130.664C58.0775 131.919 58.0775 132.572 58.0775 133.162H59.4117V131.792C59.4117 131.502 59.6109 131.249 59.8934 131.181C60.1759 131.113 60.4685 131.248 60.6004 131.507C60.6064 131.518 60.6121 131.53 60.6178 131.542C61.5444 133.502 61.3474 133.085 62.2697 135.037H57.5622C56.4144 135.037 55.4838 135.967 55.4838 137.115C55.4838 138.263 56.4143 139.193 57.5622 139.193C57.741 139.193 58.0626 139.193 58.4823 139.193C58.8776 136.991 60.9002 135.421 63.1688 135.633L67.3103 136.018C66.1563 133.577 64.6163 130.321 64.3578 129.774Z" fill="#4F4F4F"/>
<path d="M76.0103 129.003C78.5886 129.003 80.6786 126.913 80.6786 124.335C80.6786 121.757 78.5886 119.667 76.0103 119.667C73.4321 119.667 71.342 121.757 71.342 124.335C71.342 126.913 73.4321 129.003 76.0103 129.003Z" fill="#4F4F4F"/>
<path d="M88.5869 132.807C87.639 132.619 86.718 133.238 86.5313 134.187L83.5128 149.542H81.3078C81.5206 149.404 81.7206 149.245 81.9014 149.061C82.5627 148.39 82.9291 147.483 82.9197 146.541L82.8012 134.528C82.7817 132.559 81.1579 130.983 79.1894 131.022L75.9319 131.087C73.9648 131.126 72.4058 132.762 72.4616 134.728L72.4969 135.974L77.2876 132.955L71.8137 138.685L62.9607 137.86C61.7966 137.751 60.7669 138.607 60.6586 139.77C60.5963 140.44 60.8545 141.065 61.3059 141.496C59.6954 141.496 47.0877 141.496 45.5033 141.496C46.4545 141.196 47.1021 140.266 47.0059 139.233C46.8951 138.043 45.8407 137.168 44.6516 137.28L35.5981 138.123L30.0003 132.264L34.8994 135.351L34.9355 134.077C34.9925 132.066 33.3975 130.393 31.3866 130.353L28.0554 130.287C26.0416 130.247 24.3211 131.86 24.3013 133.873V146.157C24.2895 147.366 24.824 148.535 25.8862 149.227H23.6343L20.5478 133.523C20.357 132.553 19.4157 131.921 18.4454 132.112C17.4753 132.303 16.8433 133.244 17.0339 134.214L20.4048 151.363C20.4886 151.789 20.7206 152.155 21.0405 152.412V157.56V163.125C21.0405 163.784 21.5749 164.318 22.2342 164.318C22.8935 164.318 23.4279 163.784 23.4279 163.125V158.754H34.1145L34.1629 158.88L33.4159 160.767C32.8885 162.1 33.5414 163.608 34.8743 164.136C36.2074 164.663 37.7153 164.01 38.2427 162.677C44.5516 146.734 44.1627 147.738 44.2215 147.526C44.4537 146.689 44.2584 145.759 43.6309 145.077C44.544 145.077 51.0176 145.077 51.917 145.077V160.738C50.9894 160.738 50.4038 160.738 49.4675 160.738C48.4787 160.738 47.6772 161.539 47.6772 162.528C47.6772 163.517 48.4787 164.318 49.4675 164.318C51.4003 164.318 56.0181 164.318 57.9471 164.318C58.9359 164.318 59.7374 163.517 59.7374 162.528C59.7374 161.539 58.9357 160.738 57.9471 160.738C57.0109 160.738 56.4252 160.738 55.4976 160.738V145.077C59.5919 145.077 59.9957 145.077 64.0241 145.077C64.2654 145.077 64.4953 145.028 64.7054 144.942C63.5749 145.5 62.9579 146.869 63.4664 148.154L69.2279 162.713C69.7439 164.018 71.2197 164.655 72.5217 164.14C73.8252 163.624 74.4638 162.149 73.9478 160.846L73.2138 158.991L73.2647 158.859H83.715V163.151C83.715 163.796 84.2375 164.318 84.8821 164.318C85.5267 164.318 86.0493 163.796 86.0493 163.151V157.692V152.657C86.362 152.406 86.5888 152.048 86.6709 151.631L89.9671 134.862C90.1536 133.914 89.5356 132.993 88.5869 132.807ZM23.4279 156.367V152.808H31.8213L33.194 156.367H23.4279ZM35.4589 155.605L34.38 152.808H34.6947C35.6835 152.808 36.485 152.006 36.485 151.017C36.485 150.34 36.1088 149.751 35.5541 149.447L37.8986 149.44L35.4589 155.605ZM41.6002 143.286C41.6002 143.614 41.6899 143.921 41.8438 144.185H33.8914C32.8714 144.185 31.9242 143.655 31.3891 142.786C29.7911 140.192 26.5301 134.899 26.5466 134.93C26.5385 134.916 26.5248 134.888 26.5248 134.888L33.1932 141.868C33.6413 142.337 34.2868 142.59 34.9577 142.528L42.338 141.84C41.8915 142.166 41.6002 142.691 41.6002 143.286ZM71.947 155.789L69.5648 149.769L71.8271 149.776C71.3017 150.078 70.947 150.644 70.947 151.293C70.947 152.26 71.7309 153.044 72.6978 153.044H73.0054L71.947 155.789ZM65.8335 144.682C65.831 144.682 65.8287 144.682 65.8261 144.682C65.4587 144.682 65.1155 144.759 64.8068 144.895C65.4027 144.604 65.8143 143.994 65.8143 143.287C65.8143 143.282 65.8137 143.278 65.8137 143.273C65.8137 143.268 65.8143 143.264 65.8143 143.259C65.8143 142.927 65.7205 142.617 65.5603 142.351L72.44 142.992C73.1017 143.053 73.7311 142.802 74.1655 142.347L80.6882 135.519C80.6882 135.519 80.6731 135.548 80.665 135.563L75.9624 143.247C75.4081 144.153 74.4176 144.707 73.3557 144.704C70.8899 144.697 66.5544 144.684 65.8335 144.682ZM83.7151 156.524H74.1651L75.5073 153.044H83.715V156.524H83.7151Z" fill="#4F4F4F"/>
</g>
<defs>
<clipPath id="clip0">
<rect width="62" height="63" fill="white" transform="translate(58 24)"/>
</clipPath>
<clipPath id="clip1">
<rect width="73" height="73" fill="white" transform="translate(17 104)"/>
</clipPath>
</defs>
</svg>
