<svg width="200" height="200" viewBox="0 0 200 200" fill="none" xmlns="http://www.w3.org/2000/svg">
<rect width="200" height="200" fill="white"/>
<path d="M51.7547 127.031C51.6828 127.248 51.6438 127.481 51.6438 127.723C51.6438 128.333 51.8895 128.885 52.2868 129.287C52.8851 127.819 54.2211 126.696 55.9028 126.449L58.673 126.041C58.8037 125.652 58.8446 125.222 58.7538 124.771C58.5454 123.735 57.6797 122.929 56.6303 122.807C56.1208 122.747 55.639 122.845 55.2244 123.056C54.8905 123.226 54.4804 123.196 54.1793 122.973C53.7676 122.668 53.2368 122.515 52.6692 122.597C51.8065 122.721 51.1062 123.406 50.9654 124.266C50.8538 124.948 51.082 125.578 51.5068 126.019C51.7658 126.287 51.8715 126.677 51.7547 127.031V127.031Z" fill="#4F4F4F"/>
<path d="M72.9741 115.644C76.3847 114.584 78.2897 110.959 77.2292 107.549C76.1687 104.138 72.5443 102.233 69.1337 103.293C65.7231 104.354 63.8181 107.979 64.8786 111.389C65.939 114.799 69.5635 116.705 72.9741 115.644Z" fill="#4F4F4F"/>
<path d="M95.1737 171.967L92.7215 155.472L94.4734 141.014C94.5806 140.129 94.7126 139.516 94.3969 138.568L88.8558 121.927C88.0365 119.466 86.2268 117.459 83.8636 116.39C81.5004 115.321 78.7983 115.288 76.4093 116.297C73.5433 117.509 71.7969 120.281 71.7655 123.224L74.7303 122.105L67.6347 126.442L56.1506 128.133C54.5497 128.368 53.4429 129.857 53.6786 131.458C53.9142 133.058 55.4026 134.166 57.004 133.93L69.0794 132.152C69.4696 132.095 69.8441 131.959 70.1806 131.754L77.1722 127.48L71.1037 133.184C70.4303 133.816 69.7136 133.745 69.3272 133.836L57.8923 135.519C57.593 136.248 57.584 137.094 57.9421 137.865C58.6237 139.333 60.3658 139.97 61.8336 139.288L73.6854 133.785C74.375 133.464 74.6904 133.001 74.817 132.881L78.2168 142.026L74.788 154.595C74.6599 155.064 74.6307 155.556 74.7022 156.037L77.2244 173.001C77.5085 174.912 79.2891 176.248 81.2191 175.961C83.1398 175.676 84.4653 173.887 84.1797 171.966L81.7662 155.733L84.8595 144.394L87.0095 144.154L85.6836 155.097C85.6457 155.41 85.6499 155.726 85.6963 156.037L88.2182 173C88.5024 174.912 90.283 176.248 92.213 175.961C94.1338 175.676 95.4592 173.887 95.1737 171.967V171.967Z" fill="#4F4F4F"/>
<path d="M48.6394 129.381C49.5006 129.381 50.199 128.683 50.199 127.822C50.199 126.96 49.5008 126.262 48.6394 126.262C47.778 126.262 47.0798 126.96 47.0798 127.822C47.08 128.683 47.7782 129.381 48.6394 129.381Z" fill="#4F4F4F"/>
<path d="M49.0186 125.238C49.6706 125.238 50.1991 124.71 50.1991 124.058C50.1991 123.406 49.6705 122.877 49.0186 122.877C48.3666 122.877 47.8381 123.406 47.8381 124.058C47.8381 124.71 48.3666 125.238 49.0186 125.238Z" fill="#4F4F4F"/>
<path d="M45.7418 125.573C46.2127 125.552 46.5772 125.153 46.556 124.682C46.5348 124.211 46.1359 123.847 45.665 123.868C45.1942 123.889 44.8297 124.288 44.8509 124.759C44.8721 125.23 45.271 125.594 45.7418 125.573Z" fill="#4F4F4F"/>
<path d="M30.4609 137.653V128.66C30.4609 127.305 31.5632 126.203 32.9179 126.203C34.2727 126.203 35.3749 127.305 35.3749 128.66V129.805C35.3749 130.739 36.1325 131.497 37.0673 131.497C38.0021 131.497 38.7597 130.739 38.7597 129.805V128.66C38.7597 125.439 36.1391 122.818 32.9179 122.818C29.6968 122.818 27.0762 125.439 27.0762 128.66V136.774C27.3442 136.715 27.6223 136.682 27.9079 136.682C28.8866 136.682 29.7806 137.05 30.4609 137.653V137.653Z" fill="#4F4F4F"/>
<path d="M37.1126 133.708C36.1764 133.708 35.4175 136.32 35.4175 137.256C35.4175 138.192 36.1764 138.951 37.1126 138.951C38.0488 138.951 38.8077 138.192 38.8077 137.256C38.8077 136.32 38.0488 133.708 37.1126 133.708Z" fill="#4F4F4F"/>
<path d="M53.3216 141.92C51.0692 141.92 31.967 141.92 29.5431 141.92C29.8595 141.546 30.0512 141.064 30.0512 140.536C30.0512 139.352 29.0916 138.392 27.9079 138.392C26.7241 138.392 25.7874 139.352 25.7874 140.536C25.7874 141.064 25.9562 141.546 26.2728 141.92H25.7874V154.188H33.091V157.762C33.091 159.895 31.356 161.63 29.2236 161.63C27.3351 161.63 25.7988 163.166 25.7988 165.055V170.614C25.7988 171.549 26.5564 172.306 27.4911 172.306C28.4259 172.306 29.1835 171.548 29.1835 170.614V165.055C29.1835 165.033 29.2015 165.015 29.2236 165.015C33.2226 165.015 36.4758 161.761 36.4758 157.762V154.188H41.6185C46.8831 154.188 51.2475 150.34 52.0577 145.305H53.3214C54.2562 145.305 55.0138 144.547 55.0138 143.612C55.0138 142.678 54.2562 141.92 53.3216 141.92V141.92Z" fill="#4F4F4F"/>
<g clip-path="url(#clip0)">
<path d="M139.967 149.36C140.022 149.36 140.077 149.362 140.132 149.364V136.807C140.132 135.307 139.199 134.026 137.883 133.509L135.135 133.787C133.33 133.969 131.658 133.125 130.699 131.728H128.192C127.394 131.728 126.747 132.375 126.747 133.173V133.264H123.208C121.251 133.264 119.665 134.85 119.665 136.807V149.364C119.72 149.362 119.775 149.36 119.83 149.36H139.967Z" fill="#4F4F4F"/>
<path d="M151.758 116.041C149.248 117.102 147.59 119.35 147.177 121.868L151.244 120.064L143.944 125.11L134.356 126.079C132.732 126.244 131.549 127.693 131.713 129.317C131.877 130.939 133.325 132.125 134.95 131.96L145.295 130.914C145.792 130.864 146.268 130.689 146.678 130.405L153.907 125.408L149.25 130.319L153.548 141.857C153.136 143.369 150.525 152.938 150.123 154.411C149.994 154.885 149.964 155.38 150.037 155.866L152.58 172.975C152.869 174.913 154.674 176.249 156.61 175.961C158.547 175.673 159.884 173.869 159.596 171.932L157.161 155.559C157.772 153.322 159.545 146.823 160.142 144.635L162.395 144.335C162.134 146.488 161.374 152.758 161.112 154.918C161.074 155.233 161.078 155.552 161.125 155.866L163.669 172.975C163.931 174.735 165.444 176 167.172 176C169.351 176 171.001 174.066 170.684 171.932L168.211 155.296C168.332 154.291 169.133 147.628 169.8 142.082C170.018 140.264 169.834 138.421 169.259 136.682L164.312 121.718C162.583 116.527 156.792 113.913 151.758 116.041V116.041Z" fill="#4F4F4F"/>
<path d="M147.827 115.753C151.261 114.685 153.19 111.033 152.118 107.588C151.049 104.148 147.393 102.226 143.953 103.296C140.513 104.366 138.592 108.021 139.661 111.461C140.731 114.901 144.387 116.823 147.827 115.753Z" fill="#4F4F4F"/>
<path d="M139.967 151.499H119.83C118.972 151.499 118.277 152.194 118.277 153.051V153.71C118.277 158.349 120.997 162.352 124.928 164.216L124.682 166.442L123.819 174.257C123.716 175.187 124.445 176 125.381 176H134.416C135.352 176 136.081 175.187 135.978 174.257L135.115 166.442L134.869 164.216C138.8 162.352 141.519 158.349 141.519 153.71V153.051C141.52 152.194 140.825 151.499 139.967 151.499V151.499Z" fill="#4F4F4F"/>
</g>
<g clip-path="url(#clip1)">
<path d="M79.5211 59.9755C79.4909 59.489 79.3434 59.0386 79.1114 58.6459L79.2848 58.6131L76.6363 44.7325C76.3242 44.6606 76.0224 44.5519 75.7375 44.4085C75.332 45.1748 74.6742 45.8143 73.8171 46.1864L64.2539 50.3401L66.2504 60.8737L64.827 83.8307C64.7249 85.4758 65.9759 86.8921 67.621 86.9942C67.684 86.998 67.7464 87 67.8086 87C69.3724 87 70.6864 85.7824 70.7844 84.2001L72.2636 60.3449C72.272 60.2095 72.268 60.0765 72.2586 59.9448L73.5966 59.6913C73.5631 59.9033 73.55 60.1217 73.5638 60.3449L75.043 84.2001C75.141 85.7824 76.4549 87 78.0189 87C78.081 87 78.1436 86.998 78.2064 86.9942C79.8515 86.8921 81.1025 85.476 81.0003 83.8307L79.5211 59.9755Z" fill="#4F4F4F"/>
<path d="M74.5213 41.5643C73.974 40.3044 72.5091 39.7267 71.2493 40.2738L70.3268 40.6744L70.3176 40.6858L68.4731 41.4665L68.5271 41.4562L64.7551 43.0945L65.2342 42.0803L65.2483 42.0776L65.2318 42.0672L70.1506 38.9105C70.2434 38.2874 70.5316 37.6288 70.5876 37.5048C70.5866 37.5033 70.5853 37.5018 70.5843 37.5003C70.9622 36.8333 71.5201 36.2636 72.2249 35.8814C72.7843 35.578 73.4073 35.4041 74.0379 35.3742C74.5371 34.6945 75.2516 34.2001 76.0757 33.9693C76.2375 33.9239 76.4021 33.8899 76.5684 33.8667L78.2212 26.4685C78.3723 25.7927 78.2346 25.0845 77.8414 24.5144L71.3324 15.0753C70.5527 13.9447 69.0039 13.6601 67.8729 14.4398C66.7422 15.2195 66.4577 16.7684 67.2374 17.8991L73.1299 26.444L73.1208 26.4853C73.5344 27.1701 73.8342 27.9358 73.9903 28.7591C74.6969 32.4875 72.2386 36.0956 68.5101 36.8024C68.0854 36.8829 67.6523 36.9238 67.2228 36.9238C66.8546 36.9238 66.4926 36.8929 66.1383 36.8363C66.109 36.8316 66.0793 36.8276 66.0501 36.8225C66.0605 36.831 66.0701 36.8403 66.0803 36.849C66.083 36.8512 66.0856 36.8537 66.0883 36.8559L63.0637 37.4293C62.2817 37.5775 61.618 38.0908 61.2781 38.8104L57.4341 46.9467C56.9918 47.8832 57.176 48.9958 57.8968 49.7397C58.3753 50.2335 59.0238 50.4963 59.6835 50.4963C60.0175 50.4963 60.3544 50.4291 60.6737 50.2904L73.2308 44.8364C74.4907 44.289 75.0684 42.8241 74.5213 41.5643V41.5643Z" fill="#4F4F4F"/>
<path d="M76.5421 35.6327C76.0172 35.7798 75.6073 36.1057 75.3475 36.5186C75.1223 36.8766 74.7347 37.0979 74.3133 37.0979C74.3047 37.0979 74.2962 37.0979 74.2875 37.0976C74.27 37.0973 74.2523 37.0971 74.2346 37.0971C73.836 37.0971 73.4298 37.1933 73.0487 37.3999C72.5471 37.6721 72.1728 38.1052 71.9578 38.6059C73.5864 38.4896 75.1838 39.3951 75.8713 40.9779C76.111 41.5299 76.2144 42.1065 76.1975 42.6707C76.5829 42.9529 77.0503 43.1073 77.529 43.1073C77.9249 43.1073 78.3278 43.0027 78.6971 42.7796C79.562 42.2572 79.9736 41.1928 79.685 40.2246C79.5902 39.9063 79.4343 39.6287 79.2357 39.3974C78.9657 39.0832 78.906 38.6488 79.0359 38.2554C79.2225 37.6898 79.1655 37.0418 78.7978 36.4788C78.4179 35.8971 77.7605 35.5586 77.0835 35.5586C76.9029 35.5585 76.7208 35.5825 76.5421 35.6327V35.6327Z" fill="#4F4F4F"/>
<path d="M81.7624 37.3717C81.2256 37.6091 80.8885 38.1099 80.8332 38.6547C80.8064 38.9177 80.8444 39.1906 80.959 39.4497C81.0659 39.6914 81.2268 39.8921 81.4205 40.0457C81.8644 40.3976 82.4831 40.4982 83.037 40.2532C83.8327 39.9012 84.1924 38.9708 83.8405 38.1752C83.4885 37.3793 82.5582 37.0198 81.7624 37.3717V37.3717Z" fill="#4F4F4F"/>
<path d="M80.7441 36.6594C80.8284 36.6426 80.9122 36.6173 80.9941 36.5811C81.5964 36.3147 81.8687 35.6104 81.6024 35.0081C81.336 34.4058 80.6317 34.1335 80.0294 34.3999C79.842 34.4828 79.6867 34.6081 79.5695 34.7594C79.31 35.0946 79.2377 35.5579 79.4213 35.9728C79.6513 36.4933 80.2084 36.7665 80.7441 36.6594Z" fill="#4F4F4F"/>
<path d="M83.4874 33.955C83.052 34.1477 82.8552 34.6568 83.0477 35.0922C83.2403 35.5276 83.7494 35.7244 84.1847 35.5317C84.6201 35.339 84.8169 34.8301 84.6244 34.3946C84.4319 33.9593 83.9228 33.7625 83.4874 33.955Z" fill="#4F4F4F"/>
<path d="M67.2227 35.1961C67.541 35.1961 67.8642 35.1664 68.1883 35.1049C70.9853 34.5747 72.8229 31.8776 72.2928 29.0807C71.824 26.6079 69.6619 24.885 67.2341 24.8851C66.9159 24.8851 66.5927 24.9148 66.2686 24.9762C63.4717 25.5064 61.6339 28.2035 62.1641 31.0005C62.6328 33.4732 64.795 35.1961 67.2227 35.1961V35.1961Z" fill="#4F4F4F"/>
<path d="M109.914 17.1791H105.481L99.2612 14.6122C98.505 14.3003 97.6657 14.8505 97.662 15.6686C97.6456 19.2433 98.9105 22.2853 101.456 24.7948C102.039 25.369 103.021 25.162 103.333 24.4058L105.257 19.7444H109.914C113.899 19.7444 117.239 22.9768 117.239 27.0696V40.2983H115.584V39.9621C115.584 39.2536 115.01 38.6794 114.302 38.6794C113.593 38.6794 113.019 39.2536 113.019 39.9621V43.1998C113.019 43.9082 113.593 44.4824 114.302 44.4824C115.01 44.4824 115.584 43.9082 115.584 43.1998V42.8636H117.239V81.7185C117.239 83.2162 116.021 84.4347 114.523 84.4347H101.928C101.219 84.4347 100.645 85.0089 100.645 85.7173C100.645 86.4257 101.219 87 101.928 87H114.523C117.435 87 119.804 84.6307 119.804 81.7185V27.0696C119.804 21.5517 115.304 17.1791 109.914 17.1791V17.1791Z" fill="#4F4F4F"/>
<path d="M94.4131 27.8043L93.2231 29.0327C92.8945 29.3719 92.9032 29.9132 93.2423 30.2418C93.5805 30.5695 94.122 30.5629 94.4515 30.2227L95.6415 28.9944C95.9701 28.6552 95.9614 28.1137 95.6222 27.7852C95.2829 27.4565 94.7416 27.4653 94.4131 27.8043Z" fill="#4F4F4F"/>
<path d="M91.2397 31.0799L90.1652 32.189C89.8366 32.5282 89.8453 33.0694 90.1845 33.3981C90.5234 33.7266 91.0648 33.7183 91.3936 33.379L92.468 32.2699C92.7967 31.9307 92.788 31.3893 92.4488 31.0608C92.1096 30.7319 91.5682 30.7407 91.2397 31.0799Z" fill="#4F4F4F"/>
<path d="M97.5865 24.5288L96.3964 25.7571C96.0678 26.0963 96.0765 26.6376 96.4157 26.9662C96.7539 27.2939 97.2953 27.2873 97.6248 26.9471L98.8148 25.7188C99.1435 25.3796 99.1348 24.8383 98.7956 24.5097C98.4562 24.181 97.9148 24.1896 97.5865 24.5288Z" fill="#4F4F4F"/>
<path d="M94.1191 22.3647C94.3172 22.7899 94.8243 22.9794 95.2554 22.7789L96.8057 22.0569C97.2338 21.8575 97.4193 21.3489 97.2199 20.9208C97.0205 20.4926 96.5118 20.3072 96.0836 20.5066L94.5333 21.2286C94.1053 21.428 93.9199 21.9368 94.1191 22.3647Z" fill="#4F4F4F"/>
<path d="M87.8156 24.3575L86.2653 25.0795C85.8372 25.2789 85.6518 25.7875 85.8511 26.2156C86.0492 26.6408 86.5563 26.8303 86.9874 26.6298L88.5377 25.9078C88.9659 25.7084 89.1513 25.1998 88.9519 24.7716C88.7525 24.3435 88.2439 24.1581 87.8156 24.3575V24.3575Z" fill="#4F4F4F"/>
<path d="M93.0857 22.8461C92.8863 22.418 92.3775 22.2326 91.9494 22.432L90.3991 23.1539C89.971 23.3533 89.7856 23.862 89.9849 24.2901C90.183 24.7152 90.6901 24.9048 91.1212 24.7042L92.6715 23.9823C93.0996 23.783 93.285 23.2742 93.0857 22.8461V22.8461Z" fill="#4F4F4F"/>
<path d="M88.3336 18.9011L90.0291 18.6784C90.4973 18.6168 90.8271 18.1874 90.7655 17.7192C90.7038 17.2509 90.275 16.9216 89.8062 16.9829L88.1107 17.2056C87.6426 17.2672 87.3128 17.6966 87.3743 18.1649C87.4353 18.6291 87.8609 18.9627 88.3336 18.9011Z" fill="#4F4F4F"/>
<path d="M86.2442 18.3133C86.1825 17.845 85.7518 17.5156 85.285 17.5769L83.5894 17.7997C83.1211 17.8612 82.7913 18.2906 82.8529 18.7588C82.9151 19.2325 83.3501 19.5566 83.812 19.4952L85.5077 19.2724C85.976 19.211 86.3056 18.7815 86.2442 18.3133V18.3133Z" fill="#4F4F4F"/>
<path d="M92.8551 18.3068L94.5506 18.0841C95.0188 18.0225 95.3486 17.5931 95.287 17.1248C95.2253 16.6566 94.7966 16.3273 94.3277 16.3884L92.6322 16.6112C92.164 16.6727 91.8343 17.1021 91.8958 17.5703C91.957 18.0356 92.3832 18.3684 92.8551 18.3068Z" fill="#4F4F4F"/>
</g>
<defs>
<clipPath id="clip0">
<rect width="73" height="73" fill="white" transform="translate(108 103)"/>
</clipPath>
<clipPath id="clip1">
<rect width="73" height="73" fill="white" transform="translate(52 14)"/>
</clipPath>
</defs>
</svg>
