<svg width="200" height="200" viewBox="0 0 200 200" fill="none" xmlns="http://www.w3.org/2000/svg">
<rect width="200" height="200" fill="white"/>
<path d="M52.5451 105.017C55.8634 105.017 58.5534 102.327 58.5534 99.0083C58.5534 95.69 55.8634 93 52.5451 93C49.2269 93 46.5369 95.69 46.5369 99.0083C46.5369 102.327 49.2269 105.017 52.5451 105.017Z" fill="#4F4F4F"/>
<path d="M71.4971 114.705L67.2945 117.19V113.772C67.2945 113.768 67.2945 113.763 67.2945 113.758C67.2757 109.994 64.1501 106.932 60.327 106.932C57.0615 106.932 48.1031 106.932 44.7634 106.932C40.9342 106.932 37.8036 109.994 37.7847 113.758V113.772V135.071C37.7847 136.672 39.0826 137.97 40.6838 137.97C42.285 137.97 43.5829 136.672 43.5829 135.071V113.782C43.5891 113.231 44.198 112.73 44.8114 112.73V162.521C44.8114 164.442 46.3943 166 48.3156 166C50.2369 166 51.7944 164.442 51.7944 162.521V134.714H53.2966V162.521C53.2966 164.442 54.8541 166 56.7754 166C58.6968 166 60.2256 164.442 60.2256 162.521C60.2256 162.499 60.2256 112.745 60.2256 112.73H60.3273C60.9347 112.73 61.4906 113.231 61.4966 113.782V122.273C61.4966 124.528 63.9572 125.9 65.8714 124.768L74.4488 119.696C75.8269 118.881 76.2835 117.103 75.4685 115.725C74.6532 114.347 72.8755 113.89 71.4971 114.705Z" fill="#4F4F4F"/>
<path d="M88.817 102.249H86.9809C86.7181 102.249 86.5276 101.999 86.5971 101.746L88.8611 93.5033C88.9307 93.2501 88.7401 93 88.4774 93H80.1288C79.9236 93 79.7521 93.1559 79.7326 93.3601L78.6632 104.553C78.6409 104.787 78.8246 104.989 79.0594 104.989H81.6054C81.8514 104.989 82.0386 105.21 81.9979 105.453L80.7955 112.645C80.7269 113.055 81.2539 113.282 81.5051 112.951L89.1342 102.888C89.3329 102.626 89.1459 102.249 88.817 102.249Z" fill="#4F4F4F"/>
<g clip-path="url(#clip0)">
<path d="M157.482 114.732C156.03 114.732 147.253 114.732 145.797 114.732C142.971 114.732 140.661 117.031 140.647 119.856L140.632 122.86C140.632 122.866 140.625 122.868 140.621 122.865L137.709 120.02C136.825 119.157 135.395 119.198 134.563 120.129C133.78 121.006 133.875 122.36 134.715 123.181L141.262 129.575C142.626 130.907 144.99 129.959 145 128.028C145 127.954 144.997 119.866 145.004 119.792C145.047 119.271 145.834 119.319 145.834 119.842C145.835 125.136 145.841 156.406 145.841 156.397C145.841 157.816 146.945 159.028 148.363 159.076C149.847 159.125 151.065 157.938 151.065 156.466V135.589H152.186C152.189 135.589 152.192 135.592 152.192 135.595V156.397C152.192 157.816 153.296 159.028 154.714 159.076C156.198 159.125 157.416 157.937 157.416 156.465C157.416 147.237 157.376 123.397 157.369 119.602C157.369 119.379 157.535 119.181 157.758 119.169C157.995 119.156 158.192 119.344 158.192 119.579C158.192 119.582 158.192 119.586 158.192 119.589V135.579C158.198 136.777 159.171 137.744 160.368 137.744C160.372 137.744 160.376 137.744 160.379 137.744C161.581 137.738 162.551 136.759 162.545 135.557V119.567C162.531 116.741 160.307 114.732 157.482 114.732Z" fill="#4F4F4F"/>
<path d="M151.658 113.293C154.149 113.293 156.169 111.274 156.169 108.782C156.169 106.291 154.149 104.272 151.658 104.272C149.167 104.272 147.147 106.291 147.147 108.782C147.147 111.274 149.167 113.293 151.658 113.293Z" fill="#4F4F4F"/>
<path d="M125.98 119.284C125.643 119.284 118.764 119.284 113.764 119.284C110.787 119.284 108.47 121.728 108.455 124.705V141.549C108.449 142.815 109.47 143.847 110.736 143.853C110.74 143.853 110.744 143.853 110.748 143.853C112.009 143.853 113.034 142.834 113.041 141.572V124.728C113.042 124.509 113.22 124.332 113.439 124.333C113.658 124.333 113.835 124.511 113.835 124.73V163.249C113.835 164.769 115.067 166 116.586 166C118.106 166 119.338 164.768 119.338 163.249V141.257H120.526V163.249C120.526 164.768 121.757 166 123.277 166C124.796 166 126.028 164.768 126.028 163.249V124.701C126.028 124.493 126.185 124.319 126.392 124.297C126.599 124.275 126.789 124.413 126.832 124.616C126.838 124.643 126.841 124.67 126.841 124.697V141.542C126.843 142.807 127.869 143.832 129.134 143.832C129.135 143.832 129.136 143.832 129.137 143.832C130.403 143.83 131.429 142.802 131.427 141.536V124.683C131.412 121.706 128.957 119.284 125.98 119.284Z" fill="#4F4F4F"/>
<path d="M119.931 108.808C117.306 108.808 115.179 110.936 115.179 113.56C115.179 115.007 115.827 116.302 116.847 117.174H123.015C124.035 116.302 124.683 115.007 124.683 113.56C124.683 110.936 122.555 108.808 119.931 108.808Z" fill="#4F4F4F"/>
<path d="M142.238 105.849C140.908 106.226 139.495 106.419 138.026 106.419C134.074 106.419 130.671 105.029 128.719 102.892C127.038 103.841 125.978 105.222 125.978 106.759C125.978 107.582 126.283 108.359 126.822 109.05V111.318H130.277C131.435 111.715 132.762 111.94 134.172 111.94C138.697 111.94 142.366 109.621 142.366 106.759C142.366 106.448 142.321 106.144 142.238 105.849Z" fill="#4F4F4F"/>
<path d="M138.026 93C133.104 93 129.113 95.5234 129.113 98.6363C129.113 101.749 133.104 104.273 138.026 104.273C139.56 104.273 141.003 104.027 142.263 103.596H146.021V101.128C146.608 100.377 146.939 99.5309 146.939 98.6363C146.939 95.5234 142.949 93 138.026 93Z" fill="#4F4F4F"/>
</g>
<path d="M90.5245 70.8849C90.4786 71.47 90.3269 72.0799 90.0681 72.6269H92.9372C92.335 72.4548 91.7808 72.1071 91.3206 71.6595L90.5245 70.8849Z" fill="#4F4F4F"/>
<path d="M100.447 45.1052C101.163 45.308 101.913 44.8943 102.117 44.1723L104.556 35.5638C104.76 34.8449 104.342 34.0972 103.623 33.8935C102.904 33.6897 102.156 34.1074 101.953 34.8263L99.5142 43.4348C99.3105 44.1538 99.7283 44.9015 100.447 45.1052V45.1052Z" fill="#4F4F4F"/>
<path d="M81.1113 47.8227C82.7353 47.8227 84.3568 47.185 85.5681 45.919C87.9224 43.4581 87.836 39.5546 85.3751 37.2002C82.9148 34.8466 79.0112 34.9316 76.6563 37.3932C74.3019 39.8541 74.3884 43.7576 76.8493 46.112C78.0441 47.2551 79.5786 47.8227 81.1113 47.8227V47.8227Z" fill="#4F4F4F"/>
<path d="M136.916 68.7065C136.591 67.2083 135.23 66.1611 133.697 66.1685H133.69L124.273 66.1888L115.108 55.5139C113.983 54.2039 112.04 53.981 110.648 55.0024C106.052 58.3745 105.661 58.661 103.134 60.5148C102.926 60.2265 103.287 60.6427 95.8802 53.2158L98.0758 53.249C98.0902 53.2491 98.1043 53.2492 98.1187 53.2492C98.9654 53.2492 99.8008 52.8628 100.349 52.1578L106.691 43.9931C107.648 42.7615 107.425 40.9875 106.194 40.0307C105.79 39.7174 105.329 39.5329 104.856 39.4666L103.419 44.541C103.011 45.9831 101.512 46.813 100.078 46.4068C99.4202 46.2204 98.8907 45.8045 98.5464 45.2719L96.753 47.5806L92.6405 47.5183L90.1478 47.4806L89.1874 46.5199C88.8208 46.1532 88.3883 45.8677 87.9178 45.6746C87.6122 46.19 87.2471 46.6753 86.8224 47.1191C85.2515 48.761 83.1033 49.6402 80.8024 49.5515C80.574 49.8745 78.6944 51.2356 78.5649 54.0167L78.4929 54.8128L75.1189 62.4241C74.6178 63.5543 74.9104 64.879 75.8406 65.6932L83.5705 72.4589C84.725 73.4696 86.4763 73.3729 87.5119 72.242C88.5848 71.0704 88.4324 69.2091 87.237 68.1628L81.1241 62.8125L84.6743 54.8039L82.926 61.0703L93.4059 71.0506C94.4683 72.0622 95.8792 72.6265 97.3462 72.6265H133.704C135.773 72.6226 137.393 70.9073 136.916 68.7065V68.7065ZM106.517 66.2268L112.089 62.1388L115.582 66.2073L106.517 66.2268Z" fill="#4F4F4F"/>
<path d="M74.2171 66.3255C72.96 65.1099 72.7722 63.2046 73.6701 61.7821L76.8267 54.5293C76.7666 52.527 77.4614 50.6555 78.7486 49.1979C77.5998 48.8387 76.54 48.2191 75.649 47.3666C73.1965 45.0203 72.5875 41.4608 73.8612 38.5135C73.0418 38.1929 72.1535 38.0165 71.2295 38.0165C67.2368 38.0167 64 41.2535 64 45.2462V62.9141C64 68.2621 68.3355 72.5975 73.6836 72.5975H80.703L74.797 66.886L74.2171 66.3255Z" fill="#4F4F4F"/>
<defs>
<clipPath id="clip0">
<rect width="73" height="73" fill="white" transform="translate(99 93)"/>
</clipPath>
</defs>
</svg>
