<svg width="200" height="200" viewBox="0 0 200 200" fill="none" xmlns="http://www.w3.org/2000/svg">
<rect width="200" height="200" fill="white"/>
<g clip-path="url(#clip0)">
<path d="M68.5448 118.095C69.8674 118.095 70.9396 117.023 70.9396 115.7V115.391C70.9669 115.394 70.9945 115.395 71.0225 115.395H71.4669C71.9405 115.395 72.3245 115.011 72.3245 114.538V112.384C72.3245 111.91 71.9405 111.526 71.4669 111.526H71.0225C70.9945 111.526 70.9669 111.528 70.9396 111.53V105.943C70.9669 105.946 70.9945 105.947 71.0225 105.947H71.4669C71.9405 105.947 72.3245 105.563 72.3245 105.09V102.936C72.3245 102.462 71.9405 102.078 71.4669 102.078H71.0225C70.9945 102.078 70.9669 102.08 70.9396 102.082V101.774C70.9396 100.451 69.8674 99.3788 68.5448 99.3788H52.3726V103.205H67.4926C67.9627 103.205 68.3437 103.586 68.3437 104.056C68.3437 104.526 67.9627 104.907 67.4926 104.907H52.3726V107.886H67.4926C67.9627 107.886 68.3437 108.267 68.3437 108.737C68.3437 109.207 67.9627 109.588 67.4926 109.588H52.3726V112.425H67.4926C67.9627 112.425 68.3437 112.806 68.3437 113.276C68.3437 113.746 67.9627 114.127 67.4926 114.127H52.3712C52.3508 115.833 51.4047 117.315 50.0115 118.095H68.5448V118.095Z" fill="#4F4F4F"/>
<path d="M41.8966 78.6079C42.2251 75.3062 39.8149 72.3633 36.5132 72.0348C33.2114 71.7063 30.2686 74.1165 29.94 77.4183C29.6115 80.72 32.0218 83.6629 35.3235 83.9914C38.6252 84.3199 41.5681 81.9096 41.8966 78.6079Z" fill="#4F4F4F"/>
<path d="M47.7626 116.97C49.3637 116.97 50.6616 115.672 50.6616 114.071V92.7725C50.6616 92.7677 50.6616 92.7629 50.6616 92.7579C50.6428 88.9939 47.5172 85.9317 43.6941 85.9317H28.1305C24.3012 85.9317 21.1705 88.9939 21.1516 92.7579V92.7725V114.071C21.1516 115.672 22.4495 116.97 24.0507 116.97C25.6518 116.97 26.9497 115.672 26.9497 114.071V92.783C26.9553 92.2314 27.5646 91.7298 28.1783 91.7298V141.521C28.1783 143.442 29.7611 145 31.6824 145C33.6037 145 35.1612 143.442 35.1612 141.521V113.714H36.6632V141.521C36.6632 143.443 38.2207 145 40.142 145C42.0633 145 43.6357 143.443 43.6357 141.521C43.6245 122.131 43.688 140.769 43.6357 91.73C44.2432 91.73 44.8573 92.2308 44.8634 92.7822V114.071C44.8635 115.672 46.1614 116.97 47.7626 116.97V116.97Z" fill="#4F4F4F"/>
<path d="M91.454 101.04C90.503 101.04 89.5337 101.04 88.3585 101.04V99.1462C88.3585 98.2246 87.6087 97.475 86.6872 97.475H82.2941C81.3725 97.475 80.6227 98.2248 80.6227 99.1462C80.6253 100.568 80.6172 100.888 80.6298 101.04C79.486 101.04 78.5027 101.04 77.5274 101.04C76.2048 101.04 75.1326 102.174 75.1326 103.496V114.315C75.1326 115.638 76.2048 116.71 77.5274 116.71H77.832V117.237C77.832 117.711 78.216 118.095 78.6897 118.095H80.8437C81.3174 118.095 81.7013 117.711 81.7013 117.237V116.71H87.2802V117.237C87.2802 117.711 87.6641 118.095 88.1378 118.095H90.2918C90.7655 118.095 91.1494 117.711 91.1494 117.237V116.71H91.4541C92.7767 116.71 93.8489 115.638 93.8489 114.315V103.496C93.8486 102.174 92.7766 101.04 91.454 101.04V101.04ZM86.6563 101.04H82.3249V99.177H86.6563V101.04ZM87.2837 116.71H87.2841C87.284 116.712 87.2838 116.711 87.2837 116.71ZM88.3514 101.04C88.3532 101.017 88.3551 101.029 88.3563 101.04C88.3546 101.04 88.3531 101.04 88.3514 101.04ZM91.145 116.71H91.1455C91.1455 116.711 91.1452 116.712 91.145 116.71Z" fill="#4F4F4F"/>
<path d="M44.9861 120.337H93.8486V124.593H44.9861V120.337Z" fill="#4F4F4F"/>
</g>
<path d="M141.586 119.881C139.371 119.881 137.574 118.144 137.487 115.94C137.451 115.025 137.444 114.103 137.47 113.149H125.887C126.433 112.574 126.77 111.8 126.77 110.945C126.77 109.175 125.336 107.741 123.567 107.741H123.522C125.669 107.263 127.291 105.368 127.333 103.072C127.383 100.38 125.24 98.1567 122.547 98.1073C119.855 98.0579 117.632 100.201 117.583 102.893C117.539 105.249 119.175 107.246 121.389 107.741H115.508V91.4207C115.508 90.5249 114.782 89.7987 113.886 89.7987H109.622C108.726 89.7987 108 90.5249 108 91.4207L108.028 122.728C108.028 123.833 108.925 124.73 110.031 124.73H113.52V125.903C113.52 126.62 114.101 127.201 114.818 127.201H121.33C122.046 127.201 122.628 126.62 122.628 125.903V124.73H166.208V125.903C166.208 126.62 166.789 127.201 167.506 127.201H174.017C174.734 127.201 175.315 126.62 175.315 125.903V124.73H178.382C179.488 124.73 180.384 123.833 180.384 122.728V119.854C173.365 119.858 143.935 119.881 141.586 119.881Z" fill="#4F4F4F"/>
<path d="M153.639 102.564C153.639 102.564 153.639 102.563 153.639 102.563C152.954 101.458 151.499 101.122 150.401 101.802C150.4 101.802 150.4 101.802 150.4 101.803L143.481 106.088L135.347 102.36L139.165 103.033C139.76 101.219 140.433 99.7263 141.052 98.5592L132.2 98.3966C130.362 98.363 128.879 99.8456 128.846 101.629L128.738 107.503C128.705 109.315 130.164 110.823 131.971 110.857L137.591 110.96C137.621 110.596 137.656 110.239 137.695 109.889L133.685 106.774C133.72 106.79 142.668 110.891 142.668 110.891C143.352 111.204 144.199 111.178 144.887 110.752L152.878 105.803C153.987 105.116 154.321 103.665 153.639 102.564Z" fill="#4F4F4F"/>
<path d="M174.082 101.689C165.138 99.1061 150.699 97.1967 145.285 97.3498C145.285 97.3498 143.489 99.4191 142.068 103.545L143.025 103.714L149.211 99.882C151.349 98.5576 154.2 99.179 155.559 101.374C156.894 103.53 156.239 106.378 154.067 107.723L146.076 112.672C144.191 113.84 142.091 113.303 141.282 112.675L140.443 112.023C140.371 113.219 140.351 114.483 140.404 115.825C140.429 116.46 140.95 116.962 141.585 116.962H178.97C179.55 116.962 180.044 116.541 180.137 115.969L180.892 111.326C181.63 106.792 178.495 102.963 174.082 101.689Z" fill="#4F4F4F"/>
<defs>
<clipPath id="clip0">
<rect width="73" height="73" fill="white" transform="translate(21 72)"/>
</clipPath>
</defs>
</svg>
