<svg width="200" height="200" viewBox="0 0 200 200" fill="none" xmlns="http://www.w3.org/2000/svg">
<rect width="200" height="200" fill="white"/>
<g clip-path="url(#clip0)">
<path d="M91.9565 92.49H78.9413V83.1021H88.2902L91.9565 89.649V83.2447L90.9284 81.409C90.4322 80.5235 89.4932 79.9732 88.4778 79.9732H68.4434C67.1351 79.9732 65.9817 80.9005 65.7004 82.1782L65.2332 84.3029C68.6456 84.3074 68.1003 84.2957 68.4356 84.3096L68.7013 83.1021H75.6096V92.3034L79.6419 99.5036H84.7095C88.5547 99.5036 91.7104 102.507 91.9565 106.292V92.49ZM84.6901 97.6106H80.3281C79.7366 97.6106 79.2582 97.1316 79.2582 96.5407C79.2582 95.9503 79.7366 95.4713 80.3281 95.4713H84.6901C85.281 95.4713 85.7599 95.9503 85.7599 96.5407C85.7599 97.1316 85.281 97.6106 84.6901 97.6106Z" fill="#4F4F4F"/>
<path d="M89.834 108.326V106.768C89.834 103.937 87.5399 101.643 84.7095 101.643H78.3876L70.6795 87.8791C70.1832 86.993 69.2442 86.4427 68.2289 86.4427H48.1945C46.8862 86.4427 45.7322 87.37 45.451 88.6476L45.2666 89.487C45.7606 89.8027 46.2262 90.162 46.6584 90.5585H48.2351L48.4518 89.5722H55.3601V98.96H54.9034L58.7313 105.795H63.799C67.8045 105.795 71.0632 109.054 71.0632 113.06V113.363C71.54 113.72 71.9504 114.152 72.2835 114.639H73.3261C73.3261 110.726 76.509 107.544 80.421 107.544C84.3336 107.544 87.5165 110.726 87.5165 114.639C87.5421 114.639 88.7785 114.639 88.7513 114.639C90.5457 114.639 91.9999 113.184 91.9999 111.39C91.9999 109.975 91.0954 108.772 89.834 108.326V108.326ZM64.4406 104.081H60.0786C59.4877 104.081 59.0087 103.602 59.0087 103.011C59.0087 102.42 59.4877 101.941 60.0786 101.941H64.4406C65.0321 101.941 65.5105 102.42 65.5105 103.011C65.5105 103.602 65.0321 104.081 64.4406 104.081ZM58.6923 98.96V89.5716H68.0407L73.2982 98.96H58.6923Z" fill="#4F4F4F"/>
<path d="M80.4212 109.683C77.6844 109.683 75.4661 111.901 75.4661 114.638C75.4661 117.375 77.6844 119.593 80.4212 119.593C83.158 119.593 85.3764 117.375 85.3764 114.638C85.3764 111.901 83.158 109.683 80.4212 109.683V109.683ZM80.4212 116.645C79.3129 116.645 78.414 115.746 78.414 114.638C78.414 113.53 79.3129 112.631 80.4212 112.631C81.5301 112.631 82.4284 113.53 82.4284 114.638C82.4284 115.746 81.5301 116.645 80.4212 116.645Z" fill="#4F4F4F"/>
<path d="M21.6086 114.521C20.1762 114.859 19.1096 116.145 19.1096 117.681C19.1096 119.475 20.5644 120.93 22.3583 120.93H25.568V112.018L21.6086 110.765V114.521Z" fill="#4F4F4F"/>
<path d="M68.9235 114.618V113.06C68.9235 110.229 66.6294 107.935 63.799 107.935H57.4771L49.769 94.1704C49.5651 93.8067 49.2855 93.5004 48.9575 93.2648L52.2892 104.547C53.0093 106.972 51.6559 109.524 49.2438 110.287L43.6387 112.073V120.93H52.4156C52.4156 117.018 55.5985 113.835 59.5105 113.835C63.4225 113.835 66.6054 117.018 66.6054 120.93C66.6283 120.93 67.8775 120.93 67.8408 120.93C69.6352 120.93 71.0894 119.476 71.0894 117.681C71.0894 116.267 70.1855 115.064 68.9235 114.618V114.618Z" fill="#4F4F4F"/>
<path d="M59.5106 115.975C56.7737 115.975 54.5554 118.193 54.5554 120.93C54.5554 123.667 56.7737 125.885 59.5106 125.885C62.2474 125.885 64.4663 123.667 64.4663 120.93C64.4663 118.193 62.2474 115.975 59.5106 115.975ZM59.5106 122.937C58.4022 122.937 57.5033 122.038 57.5033 120.93C57.5033 119.821 58.4022 118.923 59.5106 118.923C60.6194 118.923 61.5178 119.821 61.5178 120.93C61.5178 122.038 60.6194 122.937 59.5106 122.937Z" fill="#4F4F4F"/>
<path d="M33.5771 89.8066C33.3243 89.8066 33.1332 90.0361 33.1789 90.2851L33.5108 92.0807C33.5459 92.2728 33.7136 92.412 33.909 92.412H35.2591C35.4546 92.412 35.6222 92.2728 35.6579 92.0807L35.9892 90.2851C36.0349 90.0361 35.8439 89.8066 35.591 89.8066H33.5771Z" fill="#4F4F4F"/>
<path d="M39.8455 82.7468C38.3528 83.8295 36.3512 84.3681 34.4676 84.3681C32.5768 84.3681 30.5757 83.8251 29.0897 82.7457C29.0223 85.805 31.484 88.2478 34.4676 88.2478C37.4461 88.2478 39.9117 85.8089 39.8455 82.7468Z" fill="#4F4F4F"/>
<path d="M29.1792 78.631V79.6435C29.1809 80.846 31.5457 82.4121 34.4674 82.4121C37.3886 82.4121 39.7556 80.846 39.7573 79.6435V78.6304C40.591 78.3637 41.2889 77.956 41.7133 77.3344C41.9962 76.9201 42.1577 76.411 42.1577 75.7844C42.1577 74.4277 41.2777 72.9407 39.8035 71.8067C38.2886 70.6416 36.3939 70 34.4674 70C32.5415 70 30.6468 70.6416 29.1319 71.8067C27.6571 72.9407 26.7771 74.4277 26.7771 75.785C26.7771 76.4127 26.9392 76.9228 27.2232 77.3372C27.6482 77.9582 28.3455 78.3648 29.1792 78.631ZM34.4674 75.5656C34.9614 75.5656 35.5145 76.3648 35.5145 77.4341C35.5145 78.5029 34.9614 79.3021 34.4674 79.3021C33.9728 79.3021 33.4203 78.5029 33.4203 77.4341C33.4203 76.3648 33.9728 75.5656 34.4674 75.5656Z" fill="#4F4F4F"/>
<path d="M41.46 110.506L48.5984 108.247C49.8961 107.836 50.6257 106.462 50.2381 105.157L47.4116 95.6351C46.438 92.3541 43.3676 90.0623 39.9452 90.0623H38.232C38.0326 91.0988 37.1899 94.9974 35.5848 96.2188L35.8633 94.896C35.8722 94.8526 35.8728 94.8075 35.8639 94.7635L35.5369 93.101C35.5063 92.9456 35.3698 92.8331 35.2111 92.8331H33.9569C33.7981 92.8331 33.6617 92.9456 33.6311 93.101L33.3041 94.7635C33.2952 94.8075 33.2958 94.8526 33.3047 94.896L33.5832 96.2188C31.978 94.9974 31.1354 91.0988 30.936 90.0623H29.3972C25.9747 90.0623 22.9037 92.3541 21.9302 95.6351L19.1037 105.157C18.7166 106.462 19.4462 107.836 20.7439 108.247L27.669 110.451C27.6645 114.057 27.6706 138.482 27.669 139.746C27.669 141.473 29.0691 142.873 30.7962 142.873C32.5233 142.873 33.9229 141.473 33.9229 139.746V114.844H35.2456V139.746C35.2456 141.473 36.6453 142.873 38.3723 142.873C40.0994 142.873 41.499 141.473 41.499 139.746C41.4974 138.42 41.4645 113.977 41.46 110.515V110.506ZM41.46 105.251V95.5076C41.6193 95.6106 41.7658 95.7309 41.9017 95.8635H41.9039C42.237 96.1904 42.4921 96.6064 42.6252 97.0559L44.7544 104.227L41.5152 105.252L41.46 105.269V105.251ZM27.7079 105.214L24.5879 104.227L26.7166 97.0559C26.8892 96.475 27.2451 95.9815 27.7079 95.6295V105.214Z" fill="#4F4F4F"/>
</g>
<g clip-path="url(#clip1)">
<path d="M172.289 86.9234V83.5349L173.272 83.257C173.556 83.1768 173.721 82.8816 173.641 82.597L173.399 81.7415L176.185 80.9551C176.563 80.8482 176.783 80.455 176.677 80.0768L175.548 76.0791C175.441 75.7009 175.048 75.4803 174.669 75.5873L161.846 79.2086C161.337 79.3522 161.158 79.9799 161.512 80.3715L164.627 83.8084C164.808 84.0089 165.088 84.0891 165.348 84.0156L168.65 83.0832L168.891 83.9381C168.972 84.2227 169.267 84.3882 169.551 84.3074L170.153 84.1375V87.9911C170.153 88.5803 170.631 89.0587 171.221 89.0587H179.858V86.9228H172.289V86.9234ZM173.567 77.4274C173.918 77.3283 174.282 77.5321 174.381 77.8825C174.48 78.2322 174.276 78.5965 173.926 78.695C173.576 78.7942 173.212 78.5903 173.112 78.2406C173.014 77.8903 173.218 77.526 173.567 77.4274V77.4274Z" fill="#4F4F4F"/>
<path d="M177.01 134.871H175.86V101.403C175.86 100.492 175.12 99.7526 174.209 99.7526H167.545C166.634 99.7526 165.895 100.492 165.895 101.403V134.871H164.744C164.252 134.871 163.854 135.27 163.854 135.761V137.658H177.9V135.761C177.9 135.27 177.501 134.871 177.01 134.871Z" fill="#4F4F4F"/>
<path d="M162.443 106.097V105.495C162.443 104.752 161.841 104.15 161.097 104.15H155.968C155.42 104.15 154.949 104.478 154.739 104.948L153.693 104.793L151.731 93.3305C151.586 92.4861 150.855 91.8685 149.998 91.8685H119.342C118.485 91.8685 117.754 92.4861 117.609 93.3305L115.058 108.23L114.678 107.83V105.495C114.678 104.752 114.075 104.15 113.332 104.15H108.203C107.46 104.15 106.857 104.752 106.857 105.495V108.237C106.857 108.98 107.46 109.582 108.203 109.582H112.524L113.833 110.962C112.474 112.127 111.612 113.855 111.612 115.785V127.05C111.612 128.364 112.676 129.428 113.99 129.428H115.363V133.321C115.363 135.716 117.305 137.658 119.7 137.658C122.095 137.658 124.037 135.716 124.037 133.321V129.428H127.956V131.169C127.956 131.841 128.501 132.385 129.173 132.385H140.167C140.839 132.385 141.384 131.841 141.384 131.169V129.428H145.302V133.321C145.302 135.716 147.244 137.658 149.639 137.658C152.035 137.658 153.977 135.716 153.977 133.321V129.428H155.35C156.663 129.428 157.728 128.364 157.728 127.05V115.785C157.728 113.844 156.857 112.108 155.486 110.943L156.777 109.582C157.867 109.575 162.098 109.579 162.053 109.579C162.901 109.567 163.638 108.928 163.766 108.063C163.901 107.156 163.317 106.309 162.443 106.097V106.097ZM150.92 109.432H148.925C149.028 108.345 149.081 108.14 149.072 107.663L150.657 107.898L150.92 109.432ZM119.585 123.438C117.483 123.438 115.78 121.734 115.78 119.631C115.78 117.529 117.483 115.824 119.585 115.824C121.686 115.824 123.39 117.529 123.39 119.631C123.39 121.734 121.686 123.438 119.585 123.438ZM118.42 109.432L120.825 95.385H129.751C129.669 95.5516 129.622 95.7376 129.622 95.9353V96.6521C129.622 97.3394 130.178 97.8969 130.866 97.8969H136.075C136.763 97.8969 137.32 97.3394 137.32 96.6521V95.9353C137.32 95.7376 137.273 95.5516 137.191 95.385H140.782C139.644 95.9849 138.857 97.2697 138.857 98.7596C138.857 100.821 140.366 102.493 142.226 102.493C144.087 102.493 145.595 100.821 145.595 98.7596C145.595 97.2697 144.808 95.9849 143.67 95.385H148.515L150.033 104.251L137.001 102.67C134.903 102.445 132.984 104.152 132.724 106.477L132.395 109.432H118.42ZM138.948 126.258H130.391C129.716 126.258 129.168 125.711 129.168 125.035C129.168 124.36 129.716 123.812 130.391 123.812H138.948C139.624 123.812 140.172 124.36 140.172 125.035C140.172 125.711 139.624 126.258 138.948 126.258ZM141.234 120.983H128.106C127.43 120.983 126.882 120.436 126.882 119.76C126.882 119.085 127.43 118.537 128.106 118.537H141.234C141.91 118.537 142.457 119.085 142.457 119.76C142.457 120.436 141.909 120.983 141.234 120.983ZM143.218 109.333C143.218 108.001 142.134 106.918 140.803 106.918C139.471 106.918 138.388 108.001 138.388 109.333H136.253C136.253 106.824 138.294 104.782 140.803 104.782C143.312 104.782 145.353 106.824 145.353 109.333H143.218ZM149.755 123.438C147.653 123.438 145.95 121.734 145.95 119.631C145.95 117.529 147.653 115.824 149.755 115.824C151.856 115.824 153.56 117.529 153.56 119.631C153.56 121.734 151.856 123.438 149.755 123.438V123.438Z" fill="#4F4F4F"/>
</g>
<defs>
<clipPath id="clip0">
<rect width="73" height="73" fill="white" transform="translate(19 70)"/>
</clipPath>
<clipPath id="clip1">
<rect width="73" height="73" fill="white" transform="translate(107 70)"/>
</clipPath>
</defs>
</svg>
