<svg width="200" height="200" viewBox="0 0 200 200" fill="none" xmlns="http://www.w3.org/2000/svg">
<rect width="200" height="200" fill="white"/>
<path d="M84.8374 64.3591C79.934 64.3591 75.9446 68.3485 75.9446 73.2518C75.9446 78.1552 79.934 82.1446 84.8374 82.1446C89.7407 82.1446 93.7301 78.1552 93.7301 73.2518C93.73 68.3485 89.7407 64.3591 84.8374 64.3591ZM88.0104 67.8149C88.6124 67.213 89.5883 67.213 90.1901 67.8149C90.7921 68.4169 90.7921 69.3928 90.1901 69.9946C89.9289 70.2558 89.1624 70.6115 88.3786 70.9305C88.0391 70.4143 87.5901 69.9764 87.0647 69.6502C87.3863 68.8584 87.7466 68.079 88.0104 67.8149ZM84.8374 65.5977C85.6886 65.5977 86.3787 66.2877 86.3787 67.139C86.3787 67.5137 86.08 68.3243 85.7457 69.1143C85.4528 69.0501 85.1492 69.0153 84.8374 69.0153C84.5255 69.0153 84.2219 69.0502 83.929 69.1143C83.5947 68.3241 83.296 67.5136 83.296 67.139C83.296 66.2877 83.986 65.5977 84.8374 65.5977ZM79.4842 67.8149C80.0862 67.213 81.0621 67.213 81.6639 67.8149C81.9277 68.079 82.288 68.8581 82.6097 69.6503C82.0841 69.9765 81.6352 70.4144 81.2957 70.9306C80.5119 70.6117 79.7456 70.256 79.4842 69.9947C78.8824 69.3928 78.8824 68.4169 79.4842 67.8149ZM77.267 73.1679C77.267 72.3167 77.9571 71.6266 78.8083 71.6266C79.1736 71.6266 79.9536 71.9106 80.7249 72.2348C80.6443 72.5609 80.6006 72.9013 80.6006 73.252C80.6006 73.548 80.6314 73.8368 80.6895 74.1159C79.9298 74.4337 79.1681 74.7092 78.8083 74.7092C77.9572 74.7092 77.267 74.0192 77.267 73.1679ZM81.664 78.5209C81.0621 79.1229 80.0862 79.1229 79.4843 78.5209C78.8824 77.919 78.8824 76.9431 79.4843 76.3412C79.7361 76.0895 80.4573 75.7499 81.211 75.4401C81.5476 75.9961 82.0091 76.4679 82.5553 76.8187C82.248 77.5634 81.9132 78.2718 81.664 78.5209ZM84.8374 80.7383C83.986 80.7383 83.296 80.0482 83.296 79.197C83.296 78.8464 83.5574 78.1146 83.8649 77.3746C84.1774 77.4483 84.5028 77.4884 84.8374 77.4884C85.172 77.4884 85.4974 77.4482 85.8099 77.3746C86.1173 78.1144 86.3788 78.8464 86.3788 79.197C86.3785 80.0481 85.6885 80.7383 84.8374 80.7383ZM84.8374 75.6528C83.5114 75.6528 82.4365 74.5779 82.4365 73.2518C82.4365 71.9259 83.5114 70.851 84.8374 70.851C86.1633 70.851 87.2383 71.9259 87.2383 73.2518C87.238 74.5778 86.1632 75.6528 84.8374 75.6528ZM90.1904 78.5209C89.5884 79.1229 88.6125 79.1229 88.0107 78.5209C87.7616 78.2718 87.4267 77.5634 87.1195 76.8185C87.6658 76.4679 88.1272 75.9961 88.4639 75.44C89.2174 75.7499 89.9386 76.0894 90.1905 76.3411C90.7922 76.9431 90.7922 77.919 90.1904 78.5209ZM90.8663 74.7092C90.5065 74.7092 89.7447 74.4337 88.9851 74.1159C89.0432 73.8368 89.0738 73.5479 89.0738 73.252C89.0738 72.9014 89.0303 72.5609 88.9495 72.2348C89.7208 71.9107 90.5007 71.6266 90.8662 71.6266C91.7175 71.6267 92.4076 72.3167 92.4076 73.168C92.4076 74.0192 91.7175 74.7092 90.8663 74.7092Z" fill="#4F4F4F"/>
<path d="M126.713 85.4291L122.353 72.9946L122.33 64.6354L115.504 72.5404L115.506 73.5972C115.508 73.9834 115.574 74.3666 115.703 74.7307L120.258 87.7154C120.89 89.4986 122.847 90.4309 124.629 89.8C126.411 89.1685 127.345 87.2116 126.713 85.4291Z" fill="#4F4F4F"/>
<path d="M102.309 38.8265C105.575 38.8265 108.222 36.1791 108.222 32.9133C108.222 29.6475 105.575 27 102.309 27C99.0432 27 96.3958 29.6475 96.3958 32.9133C96.3958 36.1791 99.0432 38.8265 102.309 38.8265Z" fill="#4F4F4F"/>
<path d="M123.241 51.972L114.946 38.7664C113.772 36.8981 111.306 36.3352 109.438 37.5086L103.406 41.298C101.538 42.4716 100.975 44.9374 102.148 46.8055L102.783 47.8159L105.985 42.3777L103.017 52.8158L93.6164 55.8219C92.1173 56.3013 91.2903 57.9153 91.7678 59.4086C92.2413 60.8895 93.8373 61.7427 95.3546 61.2572L106.429 57.7113C107.341 57.4197 108.043 56.6911 108.304 55.774L111.381 44.3628C111.348 45.4824 111.076 54.6855 111.042 55.8547C111.014 56.798 110.331 58.1234 109.672 58.7824L110.272 59.7384L110.272 59.7381L111.363 61.4751L113.702 59.9573L105.954 68.9303C105.595 69.3464 105.341 69.8431 105.214 70.3781L101.369 85.7825C100.933 87.6225 102.071 89.4676 103.911 89.9042C105.747 90.3398 107.595 89.2057 108.032 87.3626L111.684 72.7726L122.673 59.8549C124.563 57.633 124.793 54.442 123.241 51.972Z" fill="#4F4F4F"/>
<path d="M101.454 70.1433C101.454 70.1433 101.454 70.1433 101.454 70.1432C101.248 69.7258 100.819 69.438 100.321 69.438H99.0714L100.154 68.8129C100.759 68.4639 100.966 67.6907 100.617 67.086L98.3574 63.1722L96.1899 63.8663C92.1662 65.1537 88.5825 62.1826 88.5825 58.542C88.5825 58.2549 88.605 57.9723 88.6482 57.6955C88.6105 57.0313 88.0615 56.5037 87.3877 56.5037H82.2881C81.5899 56.5037 81.024 57.0696 81.024 57.7677V59.0178L80.399 57.9351C80.0499 57.3304 79.2767 57.1233 78.6721 57.4723L74.2555 60.0224C73.6508 60.3716 73.4437 61.1446 73.7927 61.7493L74.4178 62.832L73.3351 62.2069C72.7304 61.8579 71.9574 62.065 71.6082 62.6697L69.0584 67.086C68.7094 67.6907 68.9165 68.4637 69.5212 68.8129L70.6039 69.438H69.3534C68.6553 69.438 68.0894 70.0039 68.0894 70.7021V75.8016C68.0894 76.4998 68.6553 77.0657 69.3534 77.0657H70.6035L69.5208 77.6908C68.9161 78.0397 68.709 78.813 69.058 79.4177L71.6078 83.834C71.9568 84.4387 72.73 84.6458 73.3347 84.2968L74.4174 83.6717L73.7923 84.7544C73.4432 85.3591 73.6504 86.1321 74.2551 86.4813L78.6715 89.0311C79.2761 89.3801 80.0491 89.173 80.3983 88.5683L81.0234 87.4856V88.7357C81.0234 89.4339 81.5893 89.9998 82.2875 89.9998H87.387C88.0852 89.9998 88.6511 89.4339 88.6511 88.7357V87.4856L89.2762 88.5683C89.6252 89.173 90.3984 89.3801 91.0031 89.0311L95.4195 86.4813C96.0241 86.1323 96.2312 85.3591 95.8822 84.7544L95.2572 83.6717L96.3399 84.2968C96.9445 84.646 97.7175 84.4387 98.0667 83.834L98.435 83.1961L100.617 79.4177C100.966 78.813 100.758 78.04 100.154 77.6908L99.0711 77.0657H100.321C101.019 77.0657 101.585 76.4997 101.585 75.8015C101.585 70.1791 101.639 70.5184 101.454 70.1433ZM84.8375 84.4596C78.6574 84.4596 73.6296 79.4317 73.6296 73.2518C73.6296 67.0719 78.6576 62.044 84.8375 62.044C91.0174 62.044 96.0453 67.0718 96.0453 73.2518C96.0452 79.4319 91.0175 84.4596 84.8375 84.4596Z" fill="#4F4F4F"/>
<path d="M79.6791 114.767C81.7902 114.767 83.5017 113.056 83.5017 110.945C83.5017 108.833 81.7902 107.122 79.6791 107.122C77.5679 107.122 75.8564 108.833 75.8564 110.945C75.8564 113.056 77.5679 114.767 79.6791 114.767Z" fill="#4F4F4F"/>
<path d="M81.8749 144.466L81.6579 151.351C81.6183 152.607 82.6244 153.651 83.8872 153.651C85.0857 153.651 86.0759 152.698 86.114 151.492L86.3604 143.669C86.0383 143.821 85.7078 143.954 85.3672 144.066C84.2421 144.439 83.0839 144.562 81.8749 144.466Z" fill="#4F4F4F"/>
<path d="M77.666 143.245C76.6216 142.718 75.6015 142.032 74.6374 141.189C74.0561 140.681 73.5258 140.172 73.038 139.666C72.9508 139.945 72.9174 140.239 72.944 140.533L73.9684 151.849C74.0797 153.08 75.1711 153.981 76.3894 153.868C77.6157 153.758 78.5196 152.673 78.4085 151.447L77.666 143.245Z" fill="#4F4F4F"/>
<path d="M91.2348 131.039C90.7121 130.925 90.1943 131.257 90.0808 131.781C88.9936 136.79 87.0143 139.912 84.3567 140.809C82.1448 141.555 79.3437 140.739 76.8639 138.624C73.5166 135.768 72.0881 132.81 71.529 131.277C71.4313 131.01 71.3598 130.786 71.3097 130.613C71.5209 130.309 71.6938 129.976 71.8207 129.622L76.3658 128.928C76.8455 128.854 77.2774 128.596 77.5692 128.209L82.2199 122.032L78.8414 129.166C78.2694 130.374 77.2042 130.41 76.2208 130.561L76.1121 133.543L75.3738 134.996C76.0311 135.808 76.838 136.667 77.8309 137.535C78.1068 137.776 78.4086 138.012 78.7294 138.235L80.9394 133.884L82.2075 133.93L82.0285 139.611C82.645 139.689 83.2595 139.653 83.8443 139.459C84.8611 139.123 85.7808 138.305 86.5694 137.064L86.6629 134.092L86.6827 134.093L87.2052 119.75C87.2613 118.206 86.0555 116.909 84.5115 116.852L79.5263 116.671C77.9823 116.614 76.6851 117.82 76.6287 119.364L76.5255 122.2L79.2519 119.797L75.0567 125.369L71.4123 125.926C70.6542 124.727 69.3197 123.938 67.815 123.938C66.8094 123.938 65.8848 124.29 65.156 124.875L61.1461 127.295L58.5323 113.525C58.3741 112.691 57.6451 112.087 56.7962 112.087H28.6482C27.7993 112.087 27.0705 112.691 26.9121 113.525L24.1232 128.222C21.1121 129.499 19 132.482 19 135.959V142.974C19 144.711 20.4078 146.118 22.1439 146.118H23.1749V149.731C23.1749 152.021 25.0314 153.878 27.3213 153.878C29.6114 153.878 31.4676 152.021 31.4676 149.731V146.118H53.9768V149.731C53.9768 152.021 55.8333 153.878 58.1231 153.878C60.413 153.878 62.2695 152.021 62.2695 149.731V146.118H63.3003C65.0366 146.118 66.4441 144.711 66.4441 142.974V135.959C66.4441 134.334 65.9827 132.817 65.1841 131.532C65.9099 132.105 66.8243 132.446 67.814 132.446C68.4574 132.446 69.1168 132.297 69.7182 131.995C70.3737 133.786 71.9641 136.996 75.6041 140.101C78.2286 142.339 81.7722 143.73 84.9769 142.648C88.3644 141.505 90.7197 137.987 91.977 132.193C92.0913 131.669 91.7588 131.152 91.2348 131.039ZM27.2029 141.321C25.028 141.321 23.2884 139.552 23.2884 137.406C23.2884 135.244 25.0412 133.492 27.2029 133.492C29.355 133.492 31.1012 135.229 31.1165 137.378C31.1165 137.387 31.1173 137.397 31.1173 137.406C31.1173 139.568 29.3648 141.321 27.2029 141.321ZM27.8464 127.559L30.1116 115.621H55.333L57.5982 127.559H27.8464ZM58.2418 141.321C56.0798 141.321 54.3274 139.568 54.3274 137.406C54.3274 137.397 54.3281 137.387 54.3281 137.378C54.3435 135.229 56.0894 133.492 58.2418 133.492C60.4037 133.492 62.1562 135.245 62.1562 137.406C62.1562 139.554 60.4149 141.321 58.2418 141.321ZM62.425 128.79L63.5627 128.104C63.5486 128.785 63.695 129.429 63.9656 130.002C63.5019 129.542 62.9856 129.134 62.425 128.79ZM67.8145 130.505C66.5394 130.505 65.5017 129.468 65.5017 128.193C65.5017 127.502 65.8076 126.883 66.2891 126.459C66.8782 126.103 67.1263 125.88 67.8145 125.88C68.2945 125.88 68.7406 126.027 69.1105 126.278L68.5045 126.37C67.4903 126.525 66.7938 127.473 66.9485 128.487C67.0889 129.406 67.8805 130.064 68.7826 130.064C68.952 130.064 69.0575 130.044 69.2296 130.018C68.838 130.322 68.3478 130.505 67.8145 130.505Z" fill="#4F4F4F"/>
<g clip-path="url(#clip0)">
<path d="M150.7 112.688H110.051C108.918 112.688 108 113.606 108 114.738V150.164C108 151.296 108.918 152.215 110.051 152.215H114.942C114.94 152.147 114.936 152.08 114.936 152.013C114.936 147.356 118.725 143.567 123.382 143.567C128.038 143.567 131.827 147.356 131.827 152.013C131.827 152.08 131.823 152.147 131.822 152.215H150.7C151.833 152.215 152.751 151.296 152.751 150.164V114.738C152.751 113.606 151.833 112.688 150.7 112.688V112.688Z" fill="#4F4F4F"/>
<path d="M123.382 145.707C119.899 145.707 117.075 148.53 117.075 152.013C117.075 155.496 119.899 158.32 123.382 158.32C126.864 158.32 129.688 155.496 129.688 152.013C129.688 148.53 126.864 145.707 123.382 145.707V145.707ZM123.382 154.704C121.896 154.704 120.691 153.499 120.691 152.013C120.691 150.527 121.896 149.323 123.382 149.323C124.868 149.323 126.072 150.527 126.072 152.013C126.072 153.499 124.868 154.704 123.382 154.704Z" fill="#4F4F4F"/>
<path d="M161.672 145.707C158.19 145.707 155.366 148.53 155.366 152.013C155.366 155.496 158.19 158.32 161.672 158.32C165.155 158.32 167.979 155.496 167.979 152.013C167.979 148.53 165.155 145.707 161.672 145.707V145.707ZM161.672 154.704C160.187 154.704 158.982 153.499 158.982 152.013C158.982 150.527 160.187 149.323 161.672 149.323C163.158 149.323 164.363 150.527 164.363 152.013C164.363 153.499 163.158 154.704 161.672 154.704V154.704Z" fill="#4F4F4F"/>
<path d="M179.72 145.707H179.208V134.632L174.905 121.113C174.628 120.241 173.818 119.649 172.903 119.649H157.634C156.474 119.649 155.533 120.59 155.533 121.75V146.223C157.074 144.59 159.255 143.568 161.672 143.568C166.371 143.568 170.225 147.437 170.113 152.214H179.72C180.427 152.214 181 151.641 181 150.935V146.986C181 146.28 180.427 145.707 179.72 145.707V145.707ZM169.927 136.286C169.427 137.296 168.204 137.709 167.195 137.21L163.058 135.164L162.765 135.019C162.558 134.917 162.405 134.746 162.321 134.548L160.962 131.324L162.983 134.059C163.099 134.215 163.249 134.34 163.422 134.426L167.56 136.472C167.733 136.558 167.917 136.598 168.098 136.598C168.546 136.598 168.977 136.35 169.189 135.921C169.486 135.32 169.24 134.59 168.638 134.292L164.765 132.377L162.918 129.878L164.866 131.508L169.003 133.555C170.012 134.054 170.426 135.277 169.927 136.286V136.286ZM167.527 131.555L169.761 130.997C169.843 130.976 169.92 130.948 169.993 130.913L169.711 131.555H167.527ZM171.432 131.555L172.517 129.08C172.692 128.682 172.511 128.217 172.112 128.042C171.715 127.868 171.25 128.049 171.075 128.447L170.629 129.464C170.442 128.848 169.804 128.479 169.172 128.637L164.905 129.668V129.488C164.905 128.566 164.158 127.819 163.236 127.819H160.179C159.455 127.819 158.841 128.28 158.61 128.924V122.725H160.232C158.909 124.376 160.085 126.819 162.194 126.819C163.249 126.819 164.234 126.152 164.584 125.086L162.771 124.452L166.175 124.578C166.509 124.59 166.79 124.329 166.802 123.995C166.814 123.663 166.555 123.381 166.219 123.369L164.505 123.305C164.413 123.092 164.293 122.899 164.155 122.725H172.19L175 131.555H171.432Z" fill="#4F4F4F"/>
</g>
<defs>
<clipPath id="clip0">
<rect width="73" height="73" fill="white" transform="translate(108 99)"/>
</clipPath>
</defs>
</svg>
