<svg width="30" height="30" viewBox="0 0 30 30" fill="none" xmlns="http://www.w3.org/2000/svg">
<path d="M10.8265 29.6504C0.138562 27.6288 0.318397 13.844 0.318397 9.674H30C30 11.8201 30.0759 27.3563 18.542 29.7648C16.7594 30.137 12.9043 30.044 10.8265 29.6504Z" fill="#292F33"/>
<path d="M28.5927 5.46589C30.7464 -0.784025 21.3199 -0.425221 18.9593 0.55252C17.7441 0.370875 16.4748 0.26772 15.1592 0.26772C6.96275 0.26772 0.31844 3.88716 0.31844 9.73566C0.31844 10.867 0.572479 11.9546 1.03254 12.9772C-2.74487 19.3819 4.73925 20.5861 9.05006 19.3796C10.9148 19.9818 12.9785 20.326 15.1592 20.326C23.3557 20.326 30 15.5842 30 9.73678C30 8.13338 29.4858 6.70489 28.5927 5.46589Z" fill="#66757F"/>
<path d="M15.1592 18.6441C22.3913 18.6441 28.254 15.13 28.254 10.7952C28.254 6.46046 22.3913 2.94641 15.1592 2.94641C7.92714 2.94641 2.06439 6.46046 2.06439 10.7952C2.06439 15.13 7.92714 18.6441 15.1592 18.6441Z" fill="#FFCC4D"/>
<path d="M2.9375 8.55273C2.46434 6.12071 4.68347 1.82515 9.04841 2.94641C9.9214 1.82515 11.526 0.703888 14.2863 0.703888C16.0323 0.703888 19.1855 2.69413 17.7783 6.3102C16.9053 8.55273 13.4134 11.9165 9.04841 9.67399C8.17542 10.7953 3.81049 13.0378 2.9375 8.55273Z" fill="#77B255"/>
<path d="M9.92129 9.674C9.70392 9.71436 9.51012 9.75585 9.32941 9.79846C13.5616 11.7562 16.9244 8.5034 17.7782 6.31021C18.7193 3.89276 17.6202 2.20638 16.267 1.35086C16.611 3.3938 15.2823 8.69065 9.92129 9.674Z" fill="#5C913B"/>
<path d="M3.81038 8.55273C4.2687 7.08051 8.17532 5.18894 12.5403 11.9165C13.4132 13.0378 16.5438 13.6948 17.7782 15.2803C18.6512 16.4016 17.7782 17.5228 14.2862 17.5228C10.7943 17.5228 2.06441 14.159 3.81038 8.55273Z" fill="#D99E82"/>
<path d="M4.71921 13.058C6.94358 15.9093 11.869 17.5228 14.2863 17.5228C17.7782 17.5228 18.6512 16.4016 17.7782 15.2803C17.4936 14.9148 17.106 14.5997 16.6713 14.316C13.8742 16.2592 6.47479 14.1546 4.71921 13.058Z" fill="#B27962"/>
<path d="M23.0161 11.9176C22.8336 11.9176 22.6468 11.8795 22.4635 11.801L19.8445 10.6798C18.9296 10.2873 18.4355 9.01805 18.7402 7.84296C19.0449 6.669 20.0313 6.03325 20.9488 6.42457L23.5678 7.54583C24.4827 7.93827 24.9768 9.20754 24.6721 10.3826C24.4286 11.3234 23.7476 11.9176 23.0161 11.9176ZM22.1431 15.2803H20.3971C19.9144 15.2803 19.5241 14.7791 19.5241 14.159C19.5241 13.539 19.9144 13.0378 20.3971 13.0378H22.1431C22.6259 13.0378 23.0161 13.539 23.0161 14.159C23.0161 14.7791 22.6259 15.2803 22.1431 15.2803Z" fill="#FFE8B6"/>
</svg>
