<svg width="30" height="30" viewBox="0 0 30 30" fill="none" xmlns="http://www.w3.org/2000/svg">
<path d="M30 15C30 23.2842 23.2842 30 15 30C6.71583 30 0 23.2842 0 15C0 6.71583 6.71583 0 15 0C23.2842 0 30 6.71583 30 15Z" fill="#FFCC4D"/>
<path d="M23.5934 13.01C23.4475 12.8917 23.2384 12.8875 23.085 12.9983C23.075 13.0058 22.0342 13.75 20 13.75C17.9667 13.75 16.925 13.0058 16.9167 13C16.7642 12.8858 16.5542 12.8892 16.4075 13.0075C16.2592 13.1258 16.2092 13.3292 16.2859 13.5025C16.3359 13.615 17.5359 16.25 20 16.25C22.465 16.25 23.6642 13.615 23.7142 13.5025C23.7909 13.33 23.7409 13.1283 23.5934 13.01ZM13.085 12.9983C13.075 13.0058 12.035 13.75 10 13.75C7.96585 13.75 6.92502 13.0058 6.91669 13C6.76419 12.8858 6.55502 12.8892 6.40752 13.0075C6.25919 13.1258 6.20919 13.3292 6.28585 13.5025C6.33585 13.615 7.53585 16.25 10 16.25C12.465 16.25 13.6642 13.615 13.7142 13.5025C13.7909 13.33 13.7409 13.1283 13.5934 13.01C13.4467 12.8908 13.2367 12.8875 13.085 12.9983ZM24.1675 10.8333C23.9134 10.8333 23.6642 10.7183 23.5 10.5C21.34 7.61999 17.6992 8.30999 17.6634 8.31666C17.2075 8.40666 16.7734 8.11416 16.6825 7.66333C16.5925 7.21249 16.885 6.77333 17.3359 6.68249C17.5284 6.64333 22.05 5.78916 24.8325 9.49916C25.1092 9.86749 25.0342 10.39 24.6659 10.6658C24.5167 10.7792 24.3417 10.8333 24.1675 10.8333ZM5.83252 10.8333C5.65919 10.8333 5.48335 10.7792 5.33335 10.6667C4.96502 10.3908 4.89085 9.86833 5.16669 9.49999C7.94919 5.78833 12.4717 6.64499 12.6634 6.68333C13.115 6.77333 13.4075 7.21249 13.3167 7.66416C13.2267 8.11416 12.7884 8.40666 12.3384 8.31833C12.1834 8.28916 8.64169 7.64499 6.50002 10.5C6.33669 10.7183 6.08585 10.8333 5.83252 10.8333ZM19.3784 19.6475C19.2217 19.555 19.0184 19.5758 18.8809 19.6975C18.8725 19.7042 18.0367 20.4167 15 20.4167C11.9659 20.4167 11.1284 19.705 11.1284 19.705C10.9959 19.5717 10.7917 19.5467 10.6284 19.6367C10.4659 19.7292 10.3842 19.9192 10.43 20.1008C10.4384 20.1375 11.3834 23.75 15 23.75C18.6167 23.75 19.5617 20.1375 19.5709 20.1008C19.615 19.9233 19.5342 19.7417 19.3784 19.6475Z" fill="#664500"/>
</svg>
