<svg width="30" height="30" viewBox="0 0 30 30" fill="none" xmlns="http://www.w3.org/2000/svg">
<path d="M15 30C23.2843 30 30 23.2843 30 15C30 6.71573 23.2843 0 15 0C6.71573 0 0 6.71573 0 15C0 23.2843 6.71573 30 15 30Z" fill="#FFCC4D"/>
<path d="M15 24.1667C16.3807 24.1667 17.5 23.0474 17.5 21.6667C17.5 20.286 16.3807 19.1667 15 19.1667C13.6193 19.1667 12.5 20.286 12.5 21.6667C12.5 23.0474 13.6193 24.1667 15 24.1667Z" fill="#664500"/>
<path d="M14.4267 13.8433C14.28 13.7242 14.0708 13.7208 13.9183 13.8317C13.9083 13.8392 12.8683 14.5833 10.8333 14.5833C8.79916 14.5833 7.75832 13.8392 7.74999 13.8333C7.59749 13.7192 7.38749 13.7225 7.24082 13.8408C7.09249 13.9592 7.04249 14.1625 7.11916 14.3358C7.16916 14.4483 8.36916 17.0833 10.8333 17.0833C13.2983 17.0833 14.4975 14.4483 14.5475 14.3358C14.6242 14.1633 14.5742 13.9617 14.4267 13.8433ZM22.76 13.8433C22.6133 13.7242 22.405 13.72 22.2517 13.8317C22.2417 13.8392 21.2008 14.5833 19.1667 14.5833C17.1333 14.5833 16.0917 13.8392 16.0833 13.8333C15.9308 13.7192 15.7217 13.7225 15.5742 13.8408C15.4258 13.9592 15.3758 14.1625 15.4525 14.3358C15.5025 14.4483 16.7025 17.0833 19.1667 17.0833C21.6317 17.0833 22.8308 14.4483 22.8808 14.3358C22.9575 14.1633 22.9075 13.9617 22.76 13.8433Z" fill="#664500"/>
<path d="M28.6916 10.445C28.695 10.4083 28.7108 10.3808 28.7108 10.3425C28.7108 9.71417 28.2541 9.35251 27.69 9.35251H24.705L28.2708 4.35834C28.4425 4.12251 28.5058 3.98084 28.5058 3.68251C28.5058 3.07001 27.9725 2.97501 27.7683 2.97501H23.3108L23.2841 2.40167C23.2841 2.40167 22.11 3.09417 22.0316 3.14167C21.9533 3.18917 21.6108 3.45167 21.6108 3.96417C21.6108 4.59251 22.0658 4.95334 22.6316 4.95334H25.2558L21.705 9.94751C21.6266 10.0733 21.5016 10.3083 21.5016 10.56C21.5016 11.0783 21.925 11.33 22.4275 11.33H27.69C27.905 11.33 28.1191 11.2667 28.2575 11.1833L29.51 10.4433H28.6916V10.445Z" fill="#FFAC33"/>
<path d="M26.4758 4.23667H23.8517C23.2858 4.23667 22.8308 3.87584 22.8308 3.24751C22.8308 2.61917 23.2858 2.25751 23.8517 2.25751H28.9883C29.1925 2.25751 29.7258 2.35167 29.7258 2.96417C29.7258 3.26251 29.6625 3.40417 29.4908 3.64001L25.925 8.63417H28.91C29.4742 8.63417 29.9308 8.99501 29.9308 9.62334C29.9308 10.2517 29.4742 10.6125 28.91 10.6125H23.6475C23.145 10.6125 22.7217 10.3608 22.7217 9.84251C22.7217 9.59084 22.8467 9.35584 22.925 9.23001L26.4758 4.23667Z" fill="#2A6797"/>
<path d="M20.7383 6.23333C20.7408 6.20583 20.7533 6.185 20.7533 6.15667C20.7533 5.68667 20.4117 5.41583 19.9892 5.41583H17.7542L20.4233 1.67667C20.5533 1.5 20.6 1.39417 20.6 1.17167C20.6 0.713333 20.2008 0.6425 20.0475 0.6425H16.7108L16.6908 0.213333C16.6908 0.213333 15.8117 0.731666 15.7533 0.7675C15.695 0.803333 15.4383 1 15.4383 1.38333C15.4383 1.85333 15.7792 2.12417 16.2025 2.12417H18.1667L15.5083 5.86333C15.45 5.9575 15.3558 6.13333 15.3558 6.32167C15.3558 6.71 15.6725 6.8975 16.0492 6.8975H19.9892C20.15 6.8975 20.31 6.85 20.4142 6.7875L21.3517 6.23333H20.7383Z" fill="#FFAC33"/>
<path d="M19.08 1.58584H17.1158C16.6925 1.58584 16.3517 1.31584 16.3517 0.845005C16.3517 0.375005 16.6925 0.104172 17.1158 0.104172H20.9617C21.115 0.104172 21.5142 0.175005 21.5142 0.633338C21.5142 0.856672 21.4667 0.962505 21.3383 1.13917L18.6692 4.87834H20.9042C21.325 4.87834 21.6667 5.14834 21.6667 5.61917C21.6667 6.09 21.325 6.36 20.9025 6.36H16.9625C16.5858 6.36 16.2692 6.17167 16.2692 5.78417C16.2692 5.59584 16.3633 5.42 16.4217 5.32584L19.08 1.58584Z" fill="#2A6797"/>
<path d="M14.7841 8.6875C14.7866 8.66416 14.7966 8.64666 14.7966 8.62166C14.7966 8.21916 14.5041 7.9875 14.1425 7.9875H12.23L14.515 4.7875C14.625 4.63666 14.6658 4.54583 14.6658 4.355C14.6658 3.9625 14.3241 3.90166 14.1933 3.90166H11.3375L11.32 3.53416L10.5175 4.00833C10.4675 4.03916 10.2475 4.20666 10.2475 4.53583C10.2475 4.93833 10.5391 5.17 10.9016 5.17H12.5825L10.3075 8.37C10.2575 8.45083 10.1766 8.60166 10.1766 8.7625C10.1766 9.095 10.4483 9.25583 10.77 9.25583H14.1425C14.28 9.25583 14.4175 9.215 14.5058 9.16166L15.3083 8.6875H14.7841Z" fill="#FFAC33"/>
<path d="M13.3642 4.71H11.6833C11.3208 4.71 11.0292 4.47833 11.0292 4.07583C11.0292 3.67333 11.3208 3.44167 11.6833 3.44167H14.975C15.1058 3.44167 15.4475 3.5025 15.4475 3.895C15.4475 4.08583 15.4075 4.17667 15.2967 4.3275L13.0117 7.5275H14.9242C15.2858 7.5275 15.5783 7.75917 15.5783 8.16167C15.5783 8.56417 15.2858 8.79583 14.9242 8.79583H11.5517C11.23 8.79583 10.9583 8.635 10.9583 8.3025C10.9583 8.14167 11.0383 7.99083 11.0892 7.91L13.3642 4.71Z" fill="#2A6797"/>
</svg>
