<svg width="20" height="20" viewBox="0 0 20 20" fill="none" xmlns="http://www.w3.org/2000/svg">
<path d="M19.3 8.08001C19.019 7.74266 18.6674 7.4711 18.27 7.28448C17.8726 7.09787 17.439 7.00076 17 7.00001H12.44L13 5.57001C13.2329 4.9439 13.3105 4.27062 13.2261 3.60793C13.1416 2.94525 12.8977 2.31294 12.5152 1.76524C12.1327 1.21755 11.623 0.770811 11.0299 0.463357C10.4369 0.155904 9.77803 -0.00308995 9.11 1.40737e-05C8.91764 0.000415435 8.72948 0.0562893 8.56807 0.160937C8.40666 0.265584 8.27887 0.414564 8.2 0.590014L5.35 7.00001H3C2.20435 7.00001 1.44129 7.31608 0.87868 7.87869C0.316071 8.4413 0 9.20436 0 10V17C0 17.7957 0.316071 18.5587 0.87868 19.1213C1.44129 19.6839 2.20435 20 3 20H15.73C16.4318 19.9998 17.1113 19.7535 17.6503 19.304C18.1893 18.8546 18.5537 18.2304 18.68 17.54L19.95 10.54C20.0286 10.1074 20.011 9.66279 19.8987 9.23769C19.7864 8.81259 19.582 8.41737 19.3 8.08001V8.08001ZM5 18H3C2.73478 18 2.48043 17.8947 2.29289 17.7071C2.10536 17.5196 2 17.2652 2 17V10C2 9.7348 2.10536 9.48044 2.29289 9.29291C2.48043 9.10537 2.73478 9.00001 3 9.00001H5V18ZM18 10.18L16.73 17.18C16.6874 17.413 16.5635 17.6233 16.3804 17.7734C16.1973 17.9236 15.9668 18.0039 15.73 18H7V8.21001L9.72 2.09001C9.99998 2.17164 10.26 2.31042 10.4837 2.4976C10.7073 2.68477 10.8897 2.91628 11.0194 3.17751C11.1491 3.43873 11.2232 3.724 11.2371 4.01531C11.2509 4.30662 11.2043 4.59765 11.1 4.87001L10.57 6.30001C10.4571 6.60227 10.4189 6.92736 10.4589 7.24755C10.4988 7.56773 10.6156 7.8735 10.7993 8.13875C10.983 8.40401 11.2282 8.62088 11.5139 8.77085C11.7996 8.92083 12.1173 8.99945 12.44 9.00001H17C17.1469 8.99978 17.2921 9.03191 17.4252 9.09413C17.5582 9.15635 17.676 9.24713 17.77 9.36001C17.8663 9.47134 17.9369 9.60256 17.9767 9.74431C18.0164 9.88605 18.0244 10.0348 18 10.18Z" fill="white"/>
</svg>
