<svg width="25" height="30" viewBox="0 0 25 30" fill="none" xmlns="http://www.w3.org/2000/svg">
<path d="M25 29.9992V28.3325C25 25.5708 22.6027 23.3325 19.6429 23.3325H5.35714C2.39911 23.3325 0 25.5708 0 28.3325V29.9992H25Z" fill="#2A6797"/>
<path d="M12.5027 12.5C18.42 12.5 23.217 9.70178 23.217 6.25C23.217 2.79822 18.42 0 12.5027 0C6.58534 0 1.78839 2.79822 1.78839 6.25C1.78839 9.70178 6.58534 12.5 12.5027 12.5Z" fill="#2A6797"/>
<path d="M8.60716 23.4167C8.60716 23.4167 11.15 25.0525 12.5 25.0525C13.85 25.0525 16.392 23.4167 16.392 23.4167V20.2408H8.60626V23.4167H8.60716Z" fill="#AF7E57"/>
<path d="M8.60001 21.6433C9.68573 22.7883 11.0322 23.0983 12.4964 23.0983C13.9598 23.0983 15.3054 22.7875 16.392 21.6433V18.7342H8.59912V21.6433H8.60001Z" fill="#9B6A49"/>
<path d="M6.64639 13.2792C6.64639 14.4858 5.99103 15.4642 5.183 15.4642C4.37496 15.4642 3.7196 14.4858 3.7196 13.2792C3.7196 12.0725 4.37496 11.0933 5.183 11.0933C5.99103 11.0925 6.64639 12.0717 6.64639 13.2792ZM21.2794 13.2792C21.2794 14.4858 20.625 15.4642 19.816 15.4642C19.008 15.4642 18.3526 14.4858 18.3526 13.2792C18.3526 12.0725 19.0071 11.0933 19.816 11.0933C20.625 11.0925 21.2794 12.0717 21.2794 13.2792Z" fill="#AF7E57"/>
<path d="M4.89014 14.1317C4.89014 9.47418 8.29728 5.69751 12.5 5.69751C16.7026 5.69751 20.1089 9.47418 20.1089 14.1317C20.1089 18.7892 16.7026 22.5658 12.5 22.5658C8.29728 22.5658 4.89014 18.79 4.89014 14.1317Z" fill="#AF7E57"/>
<path d="M12.5 19.8342C10.0411 19.8342 9.28572 19.2467 9.15983 19.1275C8.93126 18.9142 8.93126 18.5683 9.15983 18.355C9.38126 18.1483 9.73662 18.1425 9.96519 18.3358C10.0116 18.3667 10.6089 18.7417 12.5 18.7417C14.4643 18.7417 15.0322 18.3375 15.0375 18.3333C15.2661 18.1208 15.6241 18.1308 15.8527 18.3458C16.0813 18.5592 16.0688 18.915 15.8402 19.1275C15.7143 19.2467 14.9589 19.8342 12.5 19.8342Z" fill="#915A34"/>
<path d="M12.5 3.67082C17.5429 3.67082 20.6947 6.37249 20.6947 9.26666C20.6947 12.1608 20.0643 13.3192 19.434 12.1608L18.1732 9.84582C18.1732 9.84582 14.392 9.84582 13.1313 8.68749C13.1313 8.68749 15.0223 12.1608 11.2402 8.68749C11.2402 8.68749 11.8706 11.0033 8.08842 8.10916C8.08842 8.10916 6.19735 9.26665 5.56699 12.1608C5.39199 12.9642 4.30627 12.1608 4.30627 9.26666C4.30538 6.37249 6.82681 3.67082 12.5 3.67082Z" fill="#60352A"/>
<path d="M8.92862 14.1658C8.43755 14.1658 8.03577 13.7908 8.03577 13.3325V12.4992C8.03577 12.0408 8.43755 11.6658 8.92862 11.6658C9.4197 11.6658 9.82148 12.0408 9.82148 12.4992V13.3325C9.82148 13.7908 9.4197 14.1658 8.92862 14.1658ZM16.0715 14.1658C15.5804 14.1658 15.1786 13.7908 15.1786 13.3325V12.4992C15.1786 12.0408 15.5804 11.6658 16.0715 11.6658C16.5626 11.6658 16.9643 12.0408 16.9643 12.4992V13.3325C16.9643 13.7908 16.5626 14.1658 16.0715 14.1658Z" fill="#60352A"/>
<path d="M13.1697 16.4575H11.8304C11.4617 16.4575 11.1608 16.1767 11.1608 15.8325C11.1608 15.4883 11.4617 15.2075 11.8304 15.2075H13.1697C13.5384 15.2075 13.8393 15.4883 13.8393 15.8325C13.8393 16.1767 13.5384 16.4575 13.1697 16.4575Z" fill="#915A34"/>
<path d="M4.01788 6.66582V7.49915C4.01788 8.41998 7.8152 9.16582 12.5 9.16582C17.1848 9.16582 20.9822 8.41998 20.9822 7.49915V6.66582H4.01788Z" fill="#2A6797"/>
<path d="M20.5366 6.66583V4.99916C20.5366 4.99916 17.1884 3.12416 12.5 3.12416C7.81428 3.12416 4.46606 4.99916 4.46606 4.99916V6.66583H20.5366Z" fill="#4289C1"/>
<path d="M20.9821 6.66582H4.01784C3.7723 6.66582 3.57141 6.85332 3.57141 7.08248C3.57141 7.31165 3.7723 7.49915 4.01784 7.49915H20.9821C21.2277 7.49915 21.4286 7.31165 21.4286 7.08248C21.4286 6.85332 21.2277 6.66582 20.9821 6.66582Z" fill="#FDCB58"/>
<path d="M14.2383 26.8967C15.0294 27.415 15.8562 27.9342 16.1553 28.0458C16.1714 28.0517 16.1696 27.9542 16.166 27.9508C14.4178 26.0408 12.5196 25.0058 12.5196 25.0058L12.5312 24.9983L12.5187 24.9992H12.4919L12.5017 25.0058C12.5017 25.0058 10.6357 26.0267 8.89905 27.9058C8.91065 27.9917 8.93208 28.0375 8.96691 28.02C9.23208 27.8867 10.016 27.3817 10.7794 26.88C10.8142 26.9733 10.849 27.0575 10.8794 27.1092C11.0187 27.3433 11.3508 27.8642 11.3508 27.8642C11.3508 27.8642 10.6785 28.3325 10.4267 30H14.5937C14.3428 28.6708 13.6732 27.8642 13.6732 27.8642C13.6732 27.8642 14.008 27.3433 14.1473 27.1092C14.1749 27.06 14.2062 26.9833 14.2383 26.8967Z" fill="#193D59"/>
<path d="M12.5009 25.0058C12.5009 25.0058 12.4919 25.0008 12.4911 24.9992C12.3803 24.9292 8.79463 22.6517 8.29641 22.1867C8.05445 21.9608 7.43034 22.9408 7.44105 23.1933C7.47766 24.0967 8.67855 28.1425 8.85445 27.9508L8.8982 27.9058C10.6348 26.0258 12.5009 25.0058 12.5009 25.0058ZM12.5187 25.0058C12.5187 25.0058 14.4169 26.0408 16.1652 27.9508C16.1687 27.955 16.175 27.9467 16.1794 27.9467C16.3911 27.9708 17.5428 24.0783 17.5786 23.1933C17.5893 22.9408 16.9643 21.9608 16.7232 22.1867C16.2259 22.6508 12.6518 24.9217 12.5303 24.9983L12.5187 25.0058Z" fill="#4289C1"/>
<path d="M12.5143 25.5725C12.0125 25.5983 11.2179 26.3567 11.3009 26.6792C11.6822 28.1667 11.9965 27.7725 12.5429 27.7725C13.0268 27.7725 13.3733 28.1367 13.7849 26.6133C13.892 26.215 12.8616 25.5533 12.5143 25.5725ZM12.5375 28.1933C11.2188 28.1933 10.7349 29.9992 10.7349 29.9992H14.3268C14.3277 29.9992 13.8563 28.1933 12.5375 28.1933Z" fill="#1E4B6E"/>
<path d="M14.5089 1.25H14.5071C14.2991 1.25083 14.1205 1.345 13.9982 1.485C13.7473 1.5425 13.4027 1.555 12.9652 1.42583C12.8438 1.31833 12.6813 1.25 12.5 1.25C12.3205 1.25 12.1571 1.31833 12.0366 1.42667C11.5982 1.55583 11.2536 1.54333 11.0036 1.48583C10.8804 1.34583 10.7018 1.25083 10.4938 1.25083H10.492C10.1214 1.25083 9.82233 1.53 9.82233 1.87583C9.82233 2.22083 10.1214 2.50083 10.492 2.50083H10.4938C10.4938 5.00083 11.8313 5.62583 12.5 5.62583C13.1705 5.62583 14.5071 5.00083 14.5071 2.50083H14.5089C14.8804 2.50083 15.1795 2.22083 15.1795 1.87583C15.1795 1.52917 14.8804 1.25 14.5089 1.25Z" fill="#FDCB58"/>
<path d="M6.6678 24.5092L1.37672 25.2908C1.13387 25.3267 0.904402 25.1708 0.866009 24.9442L0.725831 24.1208C0.687438 23.895 0.854402 23.6808 1.09726 23.645L6.38833 22.8633C6.63029 22.8275 6.86065 22.9842 6.89904 23.2092L7.03833 24.0325C7.07762 24.2583 6.91065 24.4725 6.6678 24.5092Z" fill="#4289C1"/>
<path d="M5.91523 24.24C6.19926 24.24 6.42951 24.0251 6.42951 23.76C6.42951 23.4949 6.19926 23.28 5.91523 23.28C5.63119 23.28 5.40094 23.4949 5.40094 23.76C5.40094 24.0251 5.63119 24.24 5.91523 24.24Z" fill="white"/>
<path d="M18.3429 24.5092L23.6339 25.2908C23.8777 25.3267 24.1063 25.1708 24.1447 24.9442L24.2848 24.1208C24.3232 23.895 24.1572 23.6808 23.9134 23.645L18.6214 22.8633C18.3795 22.8275 18.1491 22.9842 18.1107 23.2092L17.9714 24.0325C17.933 24.2583 18.1 24.4725 18.3429 24.5092Z" fill="#4289C1"/>
<path d="M18.9205 24.24C19.2046 24.24 19.4348 24.0251 19.4348 23.76C19.4348 23.4949 19.2046 23.28 18.9205 23.28C18.6365 23.28 18.4062 23.4949 18.4062 23.76C18.4062 24.0251 18.6365 24.24 18.9205 24.24Z" fill="white"/>
</svg>
