<svg width="30" height="30" viewBox="0 0 30 30" fill="none" xmlns="http://www.w3.org/2000/svg">
<path d="M25.8371 27.5C23.5242 27.5 21.0525 26.4058 21.0525 23.3333C21.0525 21.6075 22.1223 20.435 23.1567 19.3017C23.5615 18.8583 23.9711 18.41 24.3424 17.9133C22.8543 16.7308 21.217 15.8333 20.0955 15.8333V14.1667C21.6467 14.1667 23.5433 15.1108 25.2457 16.3917C25.6074 15.5625 25.8371 14.5775 25.8371 13.3333H27.751C27.751 15.1408 27.3223 16.5133 26.7203 17.6242C28.1031 18.9092 29.1998 20.3158 29.6151 21.4025C30.2734 23.1242 30.0773 24.9258 29.1031 26.1042C28.3586 27.0042 27.1979 27.5 25.8371 27.5ZM25.7127 19.1233C25.3606 19.565 24.9979 19.9633 24.6553 20.3383C23.7118 21.3717 22.9663 22.1892 22.9663 23.3333C22.9663 25.3992 24.528 25.8333 25.8371 25.8333C26.5873 25.8333 27.1644 25.5967 27.551 25.1292C28.1634 24.3892 28.26 23.1333 27.8007 21.93C27.4878 21.115 26.7003 20.095 25.7127 19.1233Z" fill="#99AAB5"/>
<path d="M17.4659 8.33333H5.74155C3.62769 8.33333 2.02579 9.82583 2.16263 11.6667L3.28224 26.6667C3.42004 28.5075 4.98079 30 6.77025 30H16.4372C18.2257 30 19.7874 28.5075 19.9252 26.6667L21.0457 11.6667C21.1816 9.82583 19.5797 8.33333 17.4659 8.33333Z" fill="#FFAC33"/>
<path d="M22.0094 27.5H0.956931C0.428705 27.5 0 27.8725 0 28.3333V30H22.9663V28.3333C22.9663 27.8725 22.5386 27.5 22.0094 27.5Z" fill="#AAB8C2"/>
<path d="M26.794 8.33334C26.2648 8.33334 25.8371 7.96 25.8371 7.5V4.80334L27.8514 1.29417C28.0888 0.882502 28.6629 0.715002 29.1356 0.921668C29.6084 1.1275 29.7998 1.62834 29.5634 2.04L27.751 5.19667V7.5C27.751 7.96 27.3232 8.33334 26.794 8.33334Z" fill="#FFAC33"/>
<path d="M29.1864 13.3333H28.4429C28.6074 13.0875 28.7079 12.805 28.7079 12.5V9.16667C28.7079 8.55167 28.3213 8.02001 27.751 7.73084V7.50001C27.751 7.04001 27.3233 6.66667 26.7941 6.66667C26.2649 6.66667 25.8371 7.04001 25.8371 7.50001V7.73084C25.2668 8.02001 24.8802 8.55084 24.8802 9.16667V12.5C24.8802 12.805 24.9807 13.0875 25.1453 13.3333H24.4017C24.1376 13.3333 23.9233 13.52 23.9233 13.75C23.9233 13.98 24.1376 14.1667 24.4017 14.1667H29.1864C29.4505 14.1667 29.6649 13.98 29.6649 13.75C29.6649 13.52 29.4505 13.3333 29.1864 13.3333Z" fill="#BE1931"/>
<path d="M21.0526 11.6667C21.0526 12.1267 21.4803 12.5 22.0095 12.5H26.7941C27.3233 12.5 27.7511 12.1267 27.7511 11.6667C27.7511 11.2067 27.3233 10.8333 26.7941 10.8333H22.0095C21.4803 10.8333 21.0526 11.2067 21.0526 11.6667Z" fill="#99AAB5"/>
<path d="M22.9663 11.6667C22.9663 13.5075 21.2525 15 19.1386 15H3.82772C1.71386 15 0 13.5075 0 11.6667V3.33333C0 1.4925 1.71386 0 3.82772 0H19.1386C21.2525 0 22.9663 1.4925 22.9663 3.33333V11.6667Z" fill="#E1E8ED"/>
<path d="M21.0525 11.6667C21.0525 12.5867 20.1951 13.3333 19.1386 13.3333H3.82774C2.77129 13.3333 1.91388 12.5867 1.91388 11.6667V3.33334C1.91388 2.41334 2.77129 1.66667 3.82774 1.66667H19.1386C20.1951 1.66667 21.0525 2.41334 21.0525 3.33334V11.6667Z" fill="#66757F"/>
<path d="M9.56934 4.16667H18.1817V6.66667H9.56934V4.16667Z" fill="#AAB8C2"/>
</svg>
