<svg width="30" height="30" viewBox="0 0 30 30" fill="none" xmlns="http://www.w3.org/2000/svg">
<path d="M30 26.6667C30 28.5075 28.5075 30 26.6667 30H3.33333C1.4925 30 0 28.5075 0 26.6667V3.33333C0 1.4925 1.4925 0 3.33333 0H26.6667C28.5075 0 30 1.4925 30 3.33333V26.6667Z" fill="#226699"/>
<path d="M1.41251 11.1683C1.35751 10.93 1.33917 10.8017 1.33917 10.545C1.33917 9.95834 1.83417 9.33501 2.64084 9.33501C3.52167 9.33501 3.94251 9.84834 4.10834 10.655L5.66667 18.4483H5.70334L8.08667 10.4167C8.28834 9.75667 8.83834 9.33501 9.51667 9.33501C10.195 9.33501 10.7458 9.75667 10.9475 10.4167L13.3308 18.4483H13.3675L14.9258 10.655C15.0908 9.84834 15.5125 9.33501 16.3925 9.33501C17.2 9.33501 17.6942 9.95834 17.6942 10.545C17.6942 10.8017 17.6767 10.93 17.6208 11.1683L15.2925 21.18C15.1083 21.95 14.5042 22.61 13.4767 22.61C12.5783 22.61 11.8817 22.0233 11.6617 21.2717L9.53417 14.1942H9.49751L7.37001 21.2717C7.15001 22.0233 6.45334 22.61 5.55501 22.61C4.52834 22.61 3.92251 21.95 3.73917 21.18L1.41251 11.1683ZM24.4575 9.22501C25.7975 9.22501 28.4 9.66501 28.4 11.2783C28.4 11.9383 27.9425 12.5067 27.2642 12.5067C26.5125 12.5067 25.9992 11.865 24.4583 11.865C22.1842 11.865 21.0117 13.79 21.0117 16.0267C21.0117 18.2092 22.2042 20.0792 24.4583 20.0792C26 20.0792 26.6233 19.3092 27.375 19.3092C28.2 19.3092 28.5842 20.1333 28.5842 20.5558C28.5842 22.3158 25.8158 22.7192 24.4583 22.7192C20.7367 22.7192 18.1517 19.7675 18.1517 15.9717C18.15 12.1583 20.7167 9.22501 24.4575 9.22501Z" fill="white"/>
</svg>
