<svg width="31" height="31" viewBox="0 0 31 31" fill="none" xmlns="http://www.w3.org/2000/svg">
<path fill-rule="evenodd" clip-rule="evenodd" d="M25.6717 4.38832C24.2856 2.99313 22.6364 1.88685 20.8198 1.13357C19.0031 0.38029 17.055 -0.00501142 15.0883 -1.30199e-05C6.84167 -1.30199e-05 0.128333 6.71165 0.125 14.9617C0.125 17.5983 0.813333 20.1717 2.12167 22.4417L0 30.1933L7.93167 28.1117C10.1257 29.306 12.5837 29.9322 15.0817 29.9333H15.0883C23.3333 29.9333 30.0467 23.2217 30.05 14.9717C30.0557 13.0058 29.6716 11.0583 28.9201 9.24175C28.1686 7.4252 27.0645 5.77561 25.6717 4.38832V4.38832ZM15.0883 27.4083H15.0833C12.8559 27.4086 10.6694 26.8093 8.75333 25.6733L8.3 25.4033L3.59333 26.6383L4.84833 22.05L4.55333 21.58C3.30798 19.5974 2.64872 17.303 2.65167 14.9617C2.655 8.10499 8.23333 2.52665 15.0933 2.52665C16.7271 2.52302 18.3453 2.84346 19.8544 3.46941C21.3635 4.09535 22.7335 5.01439 23.885 6.17332C25.0427 7.32672 25.9603 8.69814 26.5848 10.2083C27.2093 11.7185 27.5283 13.3375 27.5233 14.9717C27.52 21.8283 21.9417 27.4083 15.0883 27.4083ZM21.91 18.0933C21.535 17.905 19.6983 17.0017 19.355 16.8767C19.0133 16.7517 18.765 16.69 18.515 17.0633C18.265 17.4367 17.5483 18.2783 17.33 18.5283C17.1117 18.7783 16.8933 18.8083 16.52 18.6217C16.1467 18.435 14.9417 18.04 13.5133 16.7667C12.4017 15.775 11.6517 14.5517 11.4333 14.1767C11.215 13.8017 11.41 13.6 11.5983 13.4133C11.7667 13.2467 11.9717 12.9767 12.1583 12.7583C12.345 12.54 12.4067 12.385 12.5317 12.135C12.6567 11.885 12.595 11.6667 12.5 11.48C12.4067 11.2917 11.6583 9.45165 11.3467 8.70332C11.045 7.97832 10.7367 8.07499 10.5067 8.06499C10.2685 8.05524 10.0301 8.0508 9.79167 8.05165C9.60209 8.05648 9.41556 8.10043 9.24377 8.18073C9.07197 8.26104 8.91862 8.37597 8.79333 8.51832C8.45 8.89332 7.485 9.79665 7.485 11.6367C7.485 13.4767 8.825 15.255 9.01167 15.505C9.19833 15.755 11.6483 19.53 15.3983 21.15C16.2917 21.535 16.9883 21.765 17.53 21.9383C18.425 22.2233 19.24 22.1817 19.885 22.0867C20.6033 21.98 22.0967 21.1833 22.4083 20.31C22.72 19.4367 22.72 18.6883 22.6267 18.5317C22.5333 18.375 22.2817 18.28 21.91 18.0933" fill="#003B18"/>
</svg>
